<?xml version="1.0" encoding="UTF-8"?>
<svg id="Layer_1" data-name="Layer 1" xmlns="http://www.w3.org/2000/svg" viewBox="0 0 274.96 82.96">
  <defs>
    <style>
      .cls-1 {
        fill: #231f20;
      }

      .cls-2 {
        fill: #fff;
      }

      .cls-3 {
        fill: #2b51a3;
      }
    </style>
  </defs>
  <g>
    <g>
      <path class="cls-1" d="M6.98,66.49V25.01h7.68c.77,0,1.42.17,1.94.52s.89.87,1.1,1.56l.68,2.24c.69-.72,1.41-1.38,2.16-1.98.75-.6,1.55-1.12,2.42-1.56.87-.44,1.8-.79,2.8-1.04,1-.25,2.1-.38,3.3-.38,2.51,0,4.58.65,6.22,1.94s2.89,3.02,3.74,5.18c.69-1.28,1.54-2.37,2.54-3.28,1-.91,2.08-1.64,3.24-2.2,1.16-.56,2.39-.97,3.68-1.24s2.58-.4,3.86-.4c2.37,0,4.48.35,6.32,1.06,1.84.71,3.38,1.73,4.62,3.08,1.24,1.35,2.18,3,2.82,4.96.64,1.96.96,4.18.96,6.66v26.36h-12.4v-26.36c0-4.29-1.84-6.44-5.52-6.44-1.68,0-3.07.55-4.18,1.66s-1.66,2.7-1.66,4.78v26.36h-12.4v-26.36c0-2.37-.47-4.04-1.4-5-.93-.96-2.31-1.44-4.12-1.44-1.12,0-2.18.25-3.18.76-1,.51-1.94,1.19-2.82,2.04v30H6.98Z"/>
      <path class="cls-1" d="M96.5,66.49c-1.17,0-2.06-.16-2.66-.48-.6-.32-1.1-.99-1.5-2l-.88-2.28c-1.04.88-2.04,1.65-3,2.32-.96.67-1.95,1.23-2.98,1.7-1.03.47-2.12.81-3.28,1.04-1.16.23-2.45.34-3.86.34-1.89,0-3.61-.25-5.16-.74-1.55-.5-2.86-1.22-3.94-2.19-1.08-.96-1.91-2.16-2.5-3.59-.59-1.43-.88-3.08-.88-4.96,0-1.47.37-2.98,1.12-4.54.75-1.55,2.04-2.96,3.88-4.23,1.84-1.27,4.32-2.33,7.44-3.19,3.12-.86,7.05-1.28,11.8-1.28v-1.78c0-2.45-.5-4.22-1.5-5.31s-2.42-1.63-4.26-1.63c-1.47,0-2.67.16-3.6.48-.93.32-1.77.68-2.5,1.08-.73.4-1.45.76-2.14,1.08-.69.32-1.52.48-2.48.48-.85,0-1.58-.21-2.18-.62s-1.07-.93-1.42-1.54l-2.24-3.88c2.51-2.21,5.29-3.86,8.34-4.94,3.05-1.08,6.33-1.62,9.82-1.62,2.51,0,4.77.41,6.78,1.22,2.01.81,3.72,1.95,5.12,3.4,1.4,1.45,2.47,3.18,3.22,5.18.75,2,1.12,4.19,1.12,6.56v25.92h-5.68ZM82.26,58.93c1.6,0,3-.28,4.2-.84,1.2-.56,2.41-1.47,3.64-2.72v-5.68c-2.48,0-4.52.16-6.12.48s-2.87.73-3.8,1.21c-.93.48-1.58,1.04-1.94,1.66-.36.62-.54,1.29-.54,2.02,0,1.43.39,2.43,1.16,3.01.77.58,1.91.87,3.4.87Z"/>
      <path class="cls-3" d="M117.54,67.13c-1.97,0-3.71-.29-5.22-.86-1.51-.57-2.77-1.39-3.8-2.44-1.03-1.05-1.81-2.33-2.34-3.82-.53-1.49-.8-3.16-.8-5v-21.44h-3.52c-.64,0-1.19-.21-1.64-.62-.45-.41-.68-1.02-.68-1.82v-4.84l6.6-1.28,2.44-10.12c.32-1.28,1.23-1.92,2.72-1.92h6.48v12.12h10.08v8.48h-10.08v20.6c0,.96.23,1.75.7,2.38.47.63,1.14.94,2.02.94.45,0,.83-.05,1.14-.14.31-.09.57-.2.8-.32s.44-.23.64-.32c.2-.09.43-.14.7-.14.37,0,.67.09.9.26.23.17.46.45.7.82l3.76,5.88c-1.6,1.2-3.4,2.1-5.4,2.7-2,.6-4.07.9-6.2.9Z"/>
      <path class="cls-3" d="M126.98,66.49V25.01h7.36c.61,0,1.13.05,1.54.16.41.11.76.27,1.04.5.28.23.49.53.64.9.15.37.27.83.38,1.36l.68,3.88c1.52-2.35,3.23-4.2,5.12-5.56,1.89-1.36,3.96-2.04,6.2-2.04,1.89,0,3.41.45,4.56,1.36l-1.6,9.12c-.11.56-.32.95-.64,1.18-.32.23-.75.34-1.28.34-.45,0-.99-.06-1.6-.18-.61-.12-1.39-.18-2.32-.18-3.25,0-5.81,1.73-7.68,5.2v25.44h-12.4Z"/>
      <path class="cls-3" d="M169.78,24.37c2.75,0,5.26.43,7.54,1.28,2.28.85,4.24,2.09,5.88,3.72,1.64,1.63,2.92,3.62,3.84,5.98.92,2.36,1.38,5.03,1.38,8.02,0,.93-.04,1.69-.12,2.28-.08.59-.23,1.05-.44,1.4-.21.35-.5.59-.86.72-.36.13-.82.2-1.38.2h-23.92c.4,3.47,1.45,5.98,3.16,7.54,1.71,1.56,3.91,2.34,6.6,2.34,1.44,0,2.68-.17,3.72-.52,1.04-.35,1.97-.73,2.78-1.16.81-.43,1.56-.81,2.24-1.16.68-.35,1.39-.52,2.14-.52.99,0,1.73.36,2.24,1.08l3.6,4.44c-1.28,1.47-2.66,2.66-4.14,3.58s-3,1.64-4.56,2.16c-1.56.52-3.12.88-4.68,1.08s-3.05.3-4.46.3c-2.91,0-5.63-.47-8.18-1.42-2.55-.95-4.77-2.35-6.68-4.22-1.91-1.87-3.41-4.19-4.52-6.96-1.11-2.77-1.66-6-1.66-9.68,0-2.77.47-5.4,1.42-7.88.95-2.48,2.31-4.65,4.08-6.52,1.77-1.87,3.92-3.35,6.44-4.44,2.52-1.09,5.37-1.64,8.54-1.64ZM170.02,32.93c-2.37,0-4.23.67-5.56,2.02-1.33,1.35-2.21,3.29-2.64,5.82h15.48c0-.99-.13-1.95-.38-2.88-.25-.93-.67-1.77-1.24-2.5-.57-.73-1.33-1.33-2.26-1.78-.93-.45-2.07-.68-3.4-.68Z"/>
      <path class="cls-3" d="M200.34,6.61v59.88h-12.4V6.61h12.4Z"/>
      <path class="cls-3" d="M216.74,6.61v59.88h-12.4V6.61h12.4Z"/>
      <path class="cls-3" d="M237.21,24.37c3.14,0,6.01.49,8.6,1.48,2.59.99,4.81,2.4,6.66,4.24,1.85,1.84,3.29,4.07,4.32,6.7,1.03,2.63,1.54,5.58,1.54,8.86s-.51,6.29-1.54,8.94c-1.03,2.65-2.47,4.91-4.32,6.76s-4.07,3.28-6.66,4.28c-2.59,1-5.46,1.5-8.6,1.5s-6.06-.5-8.66-1.5c-2.6-1-4.84-2.43-6.72-4.28-1.88-1.85-3.33-4.11-4.36-6.76-1.03-2.65-1.54-5.63-1.54-8.94s.51-6.23,1.54-8.86c1.03-2.63,2.48-4.86,4.36-6.7,1.88-1.84,4.12-3.25,6.72-4.24,2.6-.99,5.49-1.48,8.66-1.48ZM237.21,57.93c2.85,0,4.95-1.01,6.3-3.02,1.35-2.01,2.02-5.07,2.02-9.18s-.67-7.16-2.02-9.16-3.45-3-6.3-3-5.08,1-6.44,3c-1.36,2-2.04,5.05-2.04,9.16s.68,7.17,2.04,9.18c1.36,2.01,3.51,3.02,6.44,3.02Z"/>
    </g>
    <g>
      <g>
        <path d="M64.66,82.49c-2.63,0-4.87-1.7-5.68-4.06-.81,2.36-3.04,4.06-5.68,4.06h-12.4c-2.73,0-5.03-1.82-5.76-4.31-.73,2.49-3.03,4.31-5.76,4.31h-12.4c-3.31,0-6-2.69-6-6v-41.48c0-3.31,2.69-6,6-6h7.68c1.97,0,3.74.51,5.26,1.52.02.01.04.03.06.04.08-.04.17-.09.25-.13,1.27-.64,2.62-1.15,4.05-1.51,1.48-.38,3.08-.57,4.78-.57,3.87,0,7.22,1.09,9.94,3.23.21.17.42.34.62.51.83-.57,1.69-1.07,2.58-1.5,1.59-.77,3.3-1.35,5.08-1.71,1.7-.35,3.4-.52,5.08-.52,3.1,0,5.95.49,8.47,1.46,2.7,1.04,5.01,2.59,6.88,4.61,1.82,1.98,3.21,4.39,4.11,7.16.83,2.55,1.26,5.42,1.26,8.52v26.36c0,3.31-2.69,6-6,6h-12.4Z"/>
        <path d="M88.34,83.13c-2.51,0-4.87-.35-6.99-1.03-2.34-.75-4.4-1.9-6.1-3.42-1.76-1.57-3.13-3.52-4.06-5.79-.88-2.15-1.33-4.58-1.33-7.23,0-2.37.58-4.77,1.71-7.13,1.2-2.49,3.18-4.7,5.88-6.57.3-.21.6-.41.92-.6-.11-.07-.22-.14-.33-.22-1.35-.93-2.44-2.11-3.24-3.53l-2.21-3.83c-1.43-2.47-.91-5.61,1.23-7.5,3.07-2.71,6.54-4.77,10.31-6.1,3.68-1.3,7.66-1.96,11.82-1.96,3.26,0,6.3.56,9.03,1.66,2.79,1.13,5.21,2.75,7.2,4.8,1.97,2.04,3.49,4.48,4.52,7.24,1,2.67,1.5,5.58,1.5,8.66v25.92c0,3.31-2.69,6-6,6h-5.68c-2.2,0-3.99-.39-5.49-1.19-.49-.26-.95-.57-1.38-.93-.55.3-1.11.58-1.67.84-1.44.66-3,1.15-4.61,1.47-1.53.3-3.22.45-5.01.45Z"/>
        <path d="M127.54,83.13c-2.7,0-5.18-.42-7.36-1.25-2.31-.88-4.32-2.18-5.96-3.86-1.63-1.67-2.87-3.69-3.7-5.99-.76-2.13-1.15-4.49-1.15-7.02v-15.8c-1.18-.36-2.27-.97-3.21-1.83-1.69-1.54-2.63-3.76-2.63-6.25v-4.84c0-2.87,2.04-5.34,4.86-5.89l2.81-.54,1.54-6.37c1.01-4.04,4.28-6.51,8.55-6.51h6.48c3.31,0,6,2.69,6,6v6.12h4.08c3.31,0,6,2.69,6,6v8.48c0,3.31-2.69,6-6,6h-4.08v11c1.7,0,3.27.52,4.55,1.5.79.6,1.47,1.37,2.09,2.33l3.77,5.9c1.69,2.64,1.06,6.15-1.45,8.03-2.15,1.62-4.6,2.84-7.27,3.65-2.55.76-5.22,1.15-7.93,1.15Z"/>
        <path d="M136.98,82.49c-3.31,0-6-2.69-6-6v-41.48c0-3.31,2.69-6,6-6h7.36c1.12,0,2.11.11,3.02.35,1.27.33,2.38.88,3.33,1.65.01.01.03.02.04.03,2.8-1.88,5.89-2.83,9.21-2.83s6.05.89,8.28,2.65c1.73,1.37,2.57,3.57,2.19,5.74l-1.6,9.12c-.52,2.74-1.96,4.24-3.08,5.04-1.34.95-2.98,1.45-4.75,1.45-.86,0-1.76-.1-2.76-.29-.04,0-.38-.07-1.16-.07-.37,0-.94,0-1.68.93v23.71c0,3.31-2.69,6-6,6h-12.4Z"/>
        <path d="M180.34,83.13c-3.61,0-7.07-.6-10.27-1.8-3.33-1.23-6.28-3.1-8.79-5.56-2.5-2.45-4.48-5.48-5.89-9.02-1.38-3.47-2.09-7.48-2.09-11.9,0-3.49.61-6.87,1.81-10.02,1.23-3.21,3.02-6.08,5.33-8.51,2.33-2.45,5.15-4.4,8.4-5.81,3.27-1.42,6.94-2.14,10.93-2.14,3.45,0,6.7.56,9.64,1.66,3.07,1.15,5.76,2.86,8,5.08,2.23,2.22,3.99,4.93,5.21,8.06,1.19,3.05,1.79,6.48,1.79,10.2,0,1.22-.06,2.23-.18,3.09-.19,1.42-.62,2.67-1.27,3.73-.71,1.15-1.67,2.08-2.82,2.71l2.69,3.32c1.84,2.27,1.78,5.52-.14,7.72-1.66,1.91-3.51,3.5-5.49,4.73-1.88,1.17-3.84,2.09-5.83,2.76-1.92.64-3.87,1.09-5.81,1.34-1.81.23-3.57.35-5.23.35Z"/>
        <rect x="191.94" y="10.61" width="24.4" height="71.88" rx="6" ry="6"/>
        <rect x="208.34" y="10.61" width="24.4" height="71.88" rx="6" ry="6"/>
        <path d="M247.21,83.13c-3.9,0-7.54-.64-10.81-1.9-3.36-1.29-6.31-3.18-8.78-5.61-2.48-2.45-4.41-5.43-5.74-8.87-1.29-3.33-1.94-7.07-1.94-11.1s.66-7.73,1.95-11.05c1.33-3.41,3.27-6.37,5.75-8.8,2.47-2.42,5.43-4.29,8.79-5.56,3.27-1.24,6.9-1.87,10.79-1.87s7.47.63,10.74,1.87c3.36,1.28,6.31,3.16,8.75,5.59,2.44,2.42,4.35,5.37,5.68,8.77,1.3,3.32,1.95,7.04,1.95,11.05s-.65,7.77-1.94,11.1c-1.33,3.43-3.24,6.4-5.67,8.84-2.44,2.44-5.38,4.33-8.74,5.63-3.27,1.26-6.89,1.9-10.76,1.9ZM247.21,49.57c-1.23,0-1.42.28-1.48.38-.23.34-1,1.78-1,5.78s.77,5.47,1.01,5.82c.06.09.25.38,1.47.38,1.07,0,1.23-.24,1.31-.35.24-.35,1.01-1.82,1.01-5.85s-.76-5.46-1-5.81c-.07-.1-.23-.35-1.32-.35Z"/>
      </g>
      <g>
        <path d="M63.66,81.49c-2.63,0-4.87-1.7-5.68-4.06-.81,2.36-3.04,4.06-5.68,4.06h-12.4c-2.73,0-5.03-1.82-5.76-4.31-.73,2.49-3.03,4.31-5.76,4.31h-12.4c-3.31,0-6-2.69-6-6v-41.48c0-3.31,2.69-6,6-6h7.68c1.97,0,3.74.51,5.26,1.52.02.01.04.03.06.04.08-.04.17-.09.25-.13,1.27-.64,2.62-1.15,4.05-1.51,1.48-.38,3.08-.57,4.78-.57,3.87,0,7.22,1.09,9.94,3.23.21.17.42.34.62.51.83-.57,1.69-1.07,2.58-1.5,1.59-.77,3.3-1.35,5.08-1.71,1.7-.35,3.4-.52,5.08-.52,3.1,0,5.95.49,8.47,1.46,2.7,1.04,5.01,2.59,6.88,4.61,1.82,1.98,3.21,4.39,4.11,7.16.83,2.55,1.26,5.42,1.26,8.52v26.36c0,3.31-2.69,6-6,6h-12.4Z"/>
        <path d="M87.34,82.13c-2.51,0-4.87-.35-6.99-1.03-2.34-.75-4.4-1.9-6.1-3.42-1.76-1.57-3.13-3.52-4.06-5.79-.88-2.15-1.33-4.58-1.33-7.23,0-2.37.58-4.77,1.71-7.13,1.2-2.49,3.18-4.7,5.88-6.57.3-.21.6-.41.92-.6-.11-.07-.22-.14-.33-.22-1.35-.93-2.44-2.11-3.24-3.53l-2.21-3.83c-1.43-2.47-.91-5.61,1.23-7.5,3.07-2.71,6.54-4.77,10.31-6.1,3.68-1.3,7.66-1.96,11.82-1.96,3.26,0,6.3.56,9.03,1.66,2.79,1.13,5.21,2.75,7.2,4.8,1.97,2.04,3.49,4.48,4.52,7.24,1,2.67,1.5,5.58,1.5,8.66v25.92c0,3.31-2.69,6-6,6h-5.68c-2.2,0-3.99-.39-5.49-1.19-.49-.26-.95-.57-1.38-.93-.55.3-1.11.58-1.67.84-1.44.66-3,1.15-4.61,1.47-1.53.3-3.22.45-5.01.45Z"/>
        <path d="M126.54,82.13c-2.7,0-5.18-.42-7.36-1.25-2.31-.88-4.32-2.18-5.96-3.86-1.63-1.67-2.87-3.69-3.7-5.99-.76-2.13-1.15-4.49-1.15-7.02v-15.8c-1.18-.36-2.27-.97-3.21-1.83-1.69-1.54-2.63-3.76-2.63-6.25v-4.84c0-2.87,2.04-5.34,4.86-5.89l2.81-.54,1.54-6.37c1.01-4.04,4.28-6.51,8.55-6.51h6.48c3.31,0,6,2.69,6,6v6.12h4.08c3.31,0,6,2.69,6,6v8.48c0,3.31-2.69,6-6,6h-4.08v11c1.7,0,3.27.52,4.55,1.5.79.6,1.47,1.37,2.09,2.33l3.77,5.9c1.69,2.64,1.06,6.15-1.45,8.03-2.15,1.62-4.6,2.84-7.27,3.65-2.55.76-5.22,1.15-7.93,1.15Z"/>
        <path d="M135.98,81.49c-3.31,0-6-2.69-6-6v-41.48c0-3.31,2.69-6,6-6h7.36c1.12,0,2.11.11,3.02.35,1.27.33,2.38.88,3.33,1.65.01.01.03.02.04.03,2.8-1.88,5.89-2.83,9.21-2.83s6.05.89,8.28,2.65c1.73,1.37,2.57,3.57,2.19,5.74l-1.6,9.12c-.52,2.74-1.96,4.24-3.08,5.04-1.34.95-2.98,1.45-4.75,1.45-.86,0-1.76-.1-2.76-.29-.04,0-.38-.07-1.16-.07-.37,0-.94,0-1.68.93v23.71c0,3.31-2.69,6-6,6h-12.4Z"/>
        <path d="M179.34,82.13c-3.61,0-7.07-.6-10.27-1.8-3.33-1.23-6.28-3.1-8.79-5.56-2.5-2.45-4.48-5.48-5.89-9.02-1.38-3.47-2.09-7.48-2.09-11.9,0-3.49.61-6.87,1.81-10.02,1.23-3.21,3.02-6.08,5.33-8.51,2.33-2.45,5.15-4.4,8.4-5.81,3.27-1.42,6.94-2.14,10.93-2.14,3.45,0,6.7.56,9.64,1.66,3.07,1.15,5.76,2.86,8,5.08,2.23,2.22,3.99,4.93,5.21,8.06,1.19,3.05,1.79,6.48,1.79,10.2,0,1.22-.06,2.23-.18,3.09-.19,1.42-.62,2.67-1.27,3.73-.71,1.15-1.67,2.08-2.82,2.71l2.69,3.32c1.84,2.27,1.78,5.52-.14,7.72-1.66,1.91-3.51,3.5-5.49,4.73-1.88,1.17-3.84,2.09-5.83,2.76-1.92.64-3.87,1.09-5.81,1.34-1.81.23-3.57.35-5.23.35Z"/>
        <rect x="190.94" y="9.61" width="24.4" height="71.88" rx="6" ry="6"/>
        <rect x="207.34" y="9.61" width="24.4" height="71.88" rx="6" ry="6"/>
        <path d="M246.21,82.13c-3.9,0-7.54-.64-10.81-1.9-3.36-1.29-6.31-3.18-8.78-5.61-2.48-2.45-4.41-5.43-5.74-8.87-1.29-3.33-1.94-7.07-1.94-11.1s.66-7.73,1.95-11.05c1.33-3.41,3.27-6.37,5.75-8.8,2.47-2.42,5.43-4.29,8.79-5.56,3.27-1.24,6.9-1.87,10.79-1.87s7.47.63,10.74,1.87c3.36,1.28,6.31,3.16,8.75,5.59,2.44,2.42,4.35,5.37,5.68,8.77,1.3,3.32,1.95,7.04,1.95,11.05s-.65,7.77-1.94,11.1c-1.33,3.43-3.24,6.4-5.67,8.84-2.44,2.44-5.38,4.33-8.74,5.63-3.27,1.26-6.89,1.9-10.76,1.9ZM246.21,48.57c-1.23,0-1.42.28-1.48.38-.23.34-1,1.78-1,5.78s.77,5.47,1.01,5.82c.06.09.25.38,1.47.38,1.07,0,1.23-.24,1.31-.35.24-.35,1.01-1.82,1.01-5.85s-.76-5.46-1-5.81c-.07-.1-.23-.35-1.32-.35Z"/>
      </g>
      <g>
        <path d="M62.66,80.49c-2.63,0-4.87-1.7-5.68-4.06-.81,2.36-3.04,4.06-5.68,4.06h-12.4c-2.73,0-5.03-1.82-5.76-4.31-.73,2.49-3.03,4.31-5.76,4.31h-12.4c-3.31,0-6-2.69-6-6v-41.48c0-3.31,2.69-6,6-6h7.68c1.97,0,3.74.51,5.26,1.52.02.01.04.03.06.04.08-.04.17-.09.25-.13,1.27-.64,2.62-1.15,4.05-1.51,1.48-.38,3.08-.57,4.78-.57,3.87,0,7.22,1.09,9.94,3.23.21.17.42.34.62.51.83-.57,1.69-1.07,2.58-1.5,1.59-.77,3.3-1.35,5.08-1.71,1.7-.35,3.4-.52,5.08-.52,3.1,0,5.95.49,8.47,1.46,2.7,1.04,5.01,2.59,6.88,4.61,1.82,1.98,3.21,4.39,4.11,7.16.83,2.55,1.26,5.42,1.26,8.52v26.36c0,3.31-2.69,6-6,6h-12.4Z"/>
        <path d="M86.34,81.13c-2.51,0-4.87-.35-6.99-1.03-2.34-.75-4.4-1.9-6.1-3.42-1.76-1.57-3.13-3.52-4.06-5.79-.88-2.15-1.33-4.58-1.33-7.23,0-2.37.58-4.77,1.71-7.13,1.2-2.49,3.18-4.7,5.88-6.57.3-.21.6-.41.92-.6-.11-.07-.22-.14-.33-.22-1.35-.93-2.44-2.11-3.24-3.53l-2.21-3.83c-1.43-2.47-.91-5.61,1.23-7.5,3.07-2.71,6.54-4.77,10.31-6.1,3.68-1.3,7.66-1.96,11.82-1.96,3.26,0,6.3.56,9.03,1.66,2.79,1.13,5.21,2.75,7.2,4.8,1.97,2.04,3.49,4.48,4.52,7.24,1,2.67,1.5,5.58,1.5,8.66v25.92c0,3.31-2.69,6-6,6h-5.68c-2.2,0-3.99-.39-5.49-1.19-.49-.26-.95-.57-1.38-.93-.55.3-1.11.58-1.67.84-1.44.66-3,1.15-4.61,1.47-1.53.3-3.22.45-5.01.45Z"/>
        <path d="M125.54,81.13c-2.7,0-5.18-.42-7.36-1.25-2.31-.88-4.32-2.18-5.96-3.86-1.63-1.67-2.87-3.69-3.7-5.99-.76-2.13-1.15-4.49-1.15-7.02v-15.8c-1.18-.36-2.27-.97-3.21-1.83-1.69-1.54-2.63-3.76-2.63-6.25v-4.84c0-2.87,2.04-5.34,4.86-5.89l2.81-.54,1.54-6.37c1.01-4.04,4.28-6.51,8.55-6.51h6.48c3.31,0,6,2.69,6,6v6.12h4.08c3.31,0,6,2.69,6,6v8.48c0,3.31-2.69,6-6,6h-4.08v11c1.7,0,3.27.52,4.55,1.5.79.6,1.47,1.37,2.09,2.33l3.77,5.9c1.69,2.64,1.06,6.15-1.45,8.03-2.15,1.62-4.6,2.84-7.27,3.65-2.55.76-5.22,1.15-7.93,1.15Z"/>
        <path d="M134.98,80.49c-3.31,0-6-2.69-6-6v-41.48c0-3.31,2.69-6,6-6h7.36c1.12,0,2.11.11,3.02.35,1.27.33,2.38.88,3.33,1.65.01.01.03.02.04.03,2.8-1.88,5.89-2.83,9.21-2.83s6.05.89,8.28,2.65c1.73,1.37,2.57,3.57,2.19,5.74l-1.6,9.12c-.52,2.74-1.96,4.24-3.08,5.04-1.34.95-2.98,1.45-4.75,1.45-.86,0-1.76-.1-2.76-.29-.04,0-.38-.07-1.16-.07-.37,0-.94,0-1.68.93v23.71c0,3.31-2.69,6-6,6h-12.4Z"/>
        <path d="M178.34,81.13c-3.61,0-7.07-.6-10.27-1.8-3.33-1.23-6.28-3.1-8.79-5.56-2.5-2.45-4.48-5.48-5.89-9.02-1.38-3.47-2.09-7.48-2.09-11.9,0-3.49.61-6.87,1.81-10.02,1.23-3.21,3.02-6.08,5.33-8.51,2.33-2.45,5.15-4.4,8.4-5.81,3.27-1.42,6.94-2.14,10.93-2.14,3.45,0,6.7.56,9.64,1.66,3.07,1.15,5.76,2.86,8,5.08,2.23,2.22,3.99,4.93,5.21,8.06,1.19,3.05,1.79,6.48,1.79,10.2,0,1.22-.06,2.23-.18,3.09-.19,1.42-.62,2.67-1.27,3.73-.71,1.15-1.67,2.08-2.82,2.71l2.69,3.32c1.84,2.27,1.78,5.52-.14,7.72-1.66,1.91-3.51,3.5-5.49,4.73-1.88,1.17-3.84,2.09-5.83,2.76-1.92.64-3.87,1.09-5.81,1.34-1.81.23-3.57.35-5.23.35Z"/>
        <rect x="189.94" y="8.61" width="24.4" height="71.88" rx="6" ry="6"/>
        <rect x="206.34" y="8.61" width="24.4" height="71.88" rx="6" ry="6"/>
        <path d="M245.21,81.13c-3.9,0-7.54-.64-10.81-1.9-3.36-1.29-6.31-3.18-8.78-5.61-2.48-2.45-4.41-5.43-5.74-8.87-1.29-3.33-1.94-7.07-1.94-11.1s.66-7.73,1.95-11.05c1.33-3.41,3.27-6.37,5.75-8.8,2.47-2.42,5.43-4.29,8.79-5.56,3.27-1.24,6.9-1.87,10.79-1.87s7.47.63,10.74,1.87c3.36,1.28,6.31,3.16,8.75,5.59,2.44,2.42,4.35,5.37,5.68,8.77,1.3,3.32,1.95,7.04,1.95,11.05s-.65,7.77-1.94,11.1c-1.33,3.43-3.24,6.4-5.67,8.84-2.44,2.44-5.38,4.33-8.74,5.63-3.27,1.26-6.89,1.9-10.76,1.9ZM245.21,47.57c-1.23,0-1.42.28-1.48.38-.23.34-1,1.78-1,5.78s.77,5.47,1.01,5.82c.06.09.25.38,1.47.38,1.07,0,1.23-.24,1.31-.35.24-.35,1.01-1.82,1.01-5.85s-.76-5.46-1-5.81c-.07-.1-.23-.35-1.32-.35Z"/>
      </g>
      <g>
        <path d="M61.66,79.49c-2.63,0-4.87-1.7-5.68-4.06-.81,2.36-3.04,4.06-5.68,4.06h-12.4c-2.73,0-5.03-1.82-5.76-4.31-.73,2.49-3.03,4.31-5.76,4.31h-12.4c-3.31,0-6-2.69-6-6v-41.48c0-3.31,2.69-6,6-6h7.68c1.97,0,3.74.51,5.26,1.52.02.01.04.03.06.04.08-.04.17-.09.25-.13,1.27-.64,2.62-1.15,4.05-1.51,1.48-.38,3.08-.57,4.78-.57,3.87,0,7.22,1.09,9.94,3.23.21.17.42.34.62.51.83-.57,1.69-1.07,2.58-1.5,1.59-.77,3.3-1.35,5.08-1.71,1.7-.35,3.4-.52,5.08-.52,3.1,0,5.95.49,8.47,1.46,2.7,1.04,5.01,2.59,6.88,4.61,1.82,1.98,3.21,4.39,4.11,7.16.83,2.55,1.26,5.42,1.26,8.52v26.36c0,3.31-2.69,6-6,6h-12.4Z"/>
        <path d="M85.34,80.13c-2.51,0-4.87-.35-6.99-1.03-2.34-.75-4.4-1.9-6.1-3.42-1.76-1.57-3.13-3.52-4.06-5.79-.88-2.15-1.33-4.58-1.33-7.23,0-2.37.58-4.77,1.71-7.13,1.2-2.49,3.18-4.7,5.88-6.57.3-.21.6-.41.92-.6-.11-.07-.22-.14-.33-.22-1.35-.93-2.44-2.11-3.24-3.53l-2.21-3.83c-1.43-2.47-.91-5.61,1.23-7.5,3.07-2.71,6.54-4.77,10.31-6.1,3.68-1.3,7.66-1.96,11.82-1.96,3.26,0,6.3.56,9.03,1.66,2.79,1.13,5.21,2.75,7.2,4.8,1.97,2.04,3.49,4.48,4.52,7.24,1,2.67,1.5,5.58,1.5,8.66v25.92c0,3.31-2.69,6-6,6h-5.68c-2.2,0-3.99-.39-5.49-1.19-.49-.26-.95-.57-1.38-.93-.55.3-1.11.58-1.67.84-1.44.66-3,1.15-4.61,1.47-1.53.3-3.22.45-5.01.45Z"/>
        <path d="M124.54,80.13c-2.7,0-5.18-.42-7.36-1.25-2.31-.88-4.32-2.18-5.96-3.86-1.63-1.67-2.87-3.69-3.7-5.99-.76-2.13-1.15-4.49-1.15-7.02v-15.8c-1.18-.36-2.27-.97-3.21-1.83-1.69-1.54-2.63-3.76-2.63-6.25v-4.84c0-2.87,2.04-5.34,4.86-5.89l2.81-.54,1.54-6.37c1.01-4.04,4.28-6.51,8.55-6.51h6.48c3.31,0,6,2.69,6,6v6.12h4.08c3.31,0,6,2.69,6,6v8.48c0,3.31-2.69,6-6,6h-4.08v11c1.7,0,3.27.52,4.55,1.5.79.6,1.47,1.37,2.09,2.33l3.77,5.9c1.69,2.64,1.06,6.15-1.45,8.03-2.15,1.62-4.6,2.84-7.27,3.65-2.55.76-5.22,1.15-7.93,1.15Z"/>
        <path d="M133.98,79.49c-3.31,0-6-2.69-6-6v-41.48c0-3.31,2.69-6,6-6h7.36c1.12,0,2.11.11,3.02.35,1.27.33,2.38.88,3.33,1.65.01.01.03.02.04.03,2.8-1.88,5.89-2.83,9.21-2.83s6.05.89,8.28,2.65c1.73,1.37,2.57,3.57,2.19,5.74l-1.6,9.12c-.52,2.74-1.96,4.24-3.08,5.04-1.34.95-2.98,1.45-4.75,1.45-.86,0-1.76-.1-2.76-.29-.04,0-.38-.07-1.16-.07-.37,0-.94,0-1.68.93v23.71c0,3.31-2.69,6-6,6h-12.4Z"/>
        <path d="M177.34,80.13c-3.61,0-7.07-.6-10.27-1.8-3.33-1.23-6.28-3.1-8.79-5.56-2.5-2.45-4.48-5.48-5.89-9.02-1.38-3.47-2.09-7.48-2.09-11.9,0-3.49.61-6.87,1.81-10.02,1.23-3.21,3.02-6.08,5.33-8.51,2.33-2.45,5.15-4.4,8.4-5.81,3.27-1.42,6.94-2.14,10.93-2.14,3.45,0,6.7.56,9.64,1.66,3.07,1.15,5.76,2.86,8,5.08,2.23,2.22,3.99,4.93,5.21,8.06,1.19,3.05,1.79,6.48,1.79,10.2,0,1.22-.06,2.23-.18,3.09-.19,1.42-.62,2.67-1.27,3.73-.71,1.15-1.67,2.08-2.82,2.71l2.69,3.32c1.84,2.27,1.78,5.52-.14,7.72-1.66,1.91-3.51,3.5-5.49,4.73-1.88,1.17-3.84,2.09-5.83,2.76-1.92.64-3.87,1.09-5.81,1.34-1.81.23-3.57.35-5.23.35Z"/>
        <rect x="188.94" y="7.61" width="24.4" height="71.88" rx="6" ry="6"/>
        <rect x="205.34" y="7.61" width="24.4" height="71.88" rx="6" ry="6"/>
        <path d="M244.21,80.13c-3.9,0-7.54-.64-10.81-1.9-3.36-1.29-6.31-3.18-8.78-5.61-2.48-2.45-4.41-5.43-5.74-8.87-1.29-3.33-1.94-7.07-1.94-11.1s.66-7.73,1.95-11.05c1.33-3.41,3.27-6.37,5.75-8.8,2.47-2.42,5.43-4.29,8.79-5.56,3.27-1.24,6.9-1.87,10.79-1.87s7.47.63,10.74,1.87c3.36,1.28,6.31,3.16,8.75,5.59,2.44,2.42,4.35,5.37,5.68,8.77,1.3,3.32,1.95,7.04,1.95,11.05s-.65,7.77-1.94,11.1c-1.33,3.43-3.24,6.4-5.67,8.84-2.44,2.44-5.38,4.33-8.74,5.63-3.27,1.26-6.89,1.9-10.76,1.9ZM244.21,46.57c-1.23,0-1.42.28-1.48.38-.23.34-1,1.78-1,5.78s.77,5.47,1.01,5.82c.06.09.25.38,1.47.38,1.07,0,1.23-.24,1.31-.35.24-.35,1.01-1.82,1.01-5.85s-.76-5.46-1-5.81c-.07-.1-.23-.35-1.32-.35Z"/>
      </g>
      <g>
        <path d="M60.66,78.49c-2.63,0-4.87-1.7-5.68-4.06-.81,2.36-3.04,4.06-5.68,4.06h-12.4c-2.73,0-5.03-1.82-5.76-4.31-.73,2.49-3.03,4.31-5.76,4.31h-12.4c-3.31,0-6-2.69-6-6V31.01c0-3.31,2.69-6,6-6h7.68c1.97,0,3.74.51,5.26,1.52.02.01.04.03.06.04.08-.04.17-.09.25-.13,1.27-.64,2.62-1.15,4.05-1.51,1.48-.38,3.08-.57,4.78-.57,3.87,0,7.22,1.09,9.94,3.23.21.17.42.34.62.51.83-.57,1.69-1.07,2.58-1.5,1.59-.77,3.3-1.35,5.08-1.71,1.7-.35,3.4-.52,5.08-.52,3.1,0,5.95.49,8.47,1.46,2.7,1.04,5.01,2.59,6.88,4.61,1.82,1.98,3.21,4.39,4.11,7.16.83,2.55,1.26,5.42,1.26,8.52v26.36c0,3.31-2.69,6-6,6h-12.4Z"/>
        <path d="M84.34,79.13c-2.51,0-4.87-.35-6.99-1.03-2.34-.75-4.4-1.9-6.1-3.42-1.76-1.57-3.13-3.52-4.06-5.79-.88-2.15-1.33-4.58-1.33-7.23,0-2.37.58-4.77,1.71-7.13,1.2-2.49,3.18-4.7,5.88-6.57.3-.21.6-.41.92-.6-.11-.07-.22-.14-.33-.22-1.35-.93-2.44-2.11-3.24-3.53l-2.21-3.83c-1.43-2.47-.91-5.61,1.23-7.5,3.07-2.71,6.54-4.77,10.31-6.1,3.68-1.3,7.66-1.96,11.82-1.96,3.26,0,6.3.56,9.03,1.66,2.79,1.13,5.21,2.75,7.2,4.8,1.97,2.04,3.49,4.48,4.52,7.24,1,2.67,1.5,5.58,1.5,8.66v25.92c0,3.31-2.69,6-6,6h-5.68c-2.2,0-3.99-.39-5.49-1.19-.49-.26-.95-.57-1.38-.93-.55.3-1.11.58-1.67.84-1.44.66-3,1.15-4.61,1.47-1.53.3-3.22.45-5.01.45Z"/>
        <path d="M123.54,79.13c-2.7,0-5.18-.42-7.36-1.25-2.31-.88-4.32-2.18-5.96-3.86-1.63-1.67-2.87-3.69-3.7-5.99-.76-2.13-1.15-4.49-1.15-7.02v-15.8c-1.18-.36-2.27-.97-3.21-1.83-1.69-1.54-2.63-3.76-2.63-6.25v-4.84c0-2.87,2.04-5.34,4.86-5.89l2.81-.54,1.54-6.37c1.01-4.04,4.28-6.51,8.55-6.51h6.48c3.31,0,6,2.69,6,6v6.12h4.08c3.31,0,6,2.69,6,6v8.48c0,3.31-2.69,6-6,6h-4.08v11c1.7,0,3.27.52,4.55,1.5.79.6,1.47,1.37,2.09,2.33l3.77,5.9c1.69,2.64,1.06,6.15-1.45,8.03-2.15,1.62-4.6,2.84-7.27,3.65-2.55.76-5.22,1.15-7.93,1.15Z"/>
        <path d="M132.98,78.49c-3.31,0-6-2.69-6-6V31.01c0-3.31,2.69-6,6-6h7.36c1.12,0,2.11.11,3.02.35,1.27.33,2.38.88,3.33,1.65.01.01.03.02.04.03,2.8-1.88,5.89-2.83,9.21-2.83s6.05.89,8.28,2.65c1.73,1.37,2.57,3.57,2.19,5.74l-1.6,9.12c-.52,2.74-1.96,4.24-3.08,5.04-1.34.95-2.98,1.45-4.75,1.45-.86,0-1.76-.1-2.76-.29-.04,0-.38-.07-1.16-.07-.37,0-.94,0-1.68.93v23.71c0,3.31-2.69,6-6,6h-12.4Z"/>
        <path d="M176.34,79.13c-3.61,0-7.07-.6-10.27-1.8-3.33-1.23-6.28-3.1-8.79-5.56-2.5-2.45-4.48-5.48-5.89-9.02-1.38-3.47-2.09-7.48-2.09-11.9,0-3.49.61-6.87,1.81-10.02,1.23-3.21,3.02-6.08,5.33-8.51,2.33-2.45,5.15-4.4,8.4-5.81,3.27-1.42,6.94-2.14,10.93-2.14,3.45,0,6.7.56,9.64,1.66,3.07,1.15,5.76,2.86,8,5.08,2.23,2.22,3.99,4.93,5.21,8.06,1.19,3.05,1.79,6.48,1.79,10.2,0,1.22-.06,2.23-.18,3.09-.19,1.42-.62,2.67-1.27,3.73-.71,1.15-1.67,2.08-2.82,2.71l2.69,3.32c1.84,2.27,1.78,5.52-.14,7.72-1.66,1.91-3.51,3.5-5.49,4.73-1.88,1.17-3.84,2.09-5.83,2.76-1.92.64-3.87,1.09-5.81,1.34-1.81.23-3.57.35-5.23.35Z"/>
        <rect x="187.94" y="6.61" width="24.4" height="71.88" rx="6" ry="6"/>
        <rect x="204.34" y="6.61" width="24.4" height="71.88" rx="6" ry="6"/>
        <path d="M243.21,79.13c-3.9,0-7.54-.64-10.81-1.9-3.36-1.29-6.31-3.18-8.78-5.61-2.48-2.45-4.41-5.43-5.74-8.87-1.29-3.33-1.94-7.07-1.94-11.1s.66-7.73,1.95-11.05c1.33-3.41,3.27-6.37,5.75-8.8,2.47-2.42,5.43-4.29,8.79-5.56,3.27-1.24,6.9-1.87,10.79-1.87s7.47.63,10.74,1.87c3.36,1.28,6.31,3.16,8.75,5.59,2.44,2.42,4.35,5.37,5.68,8.77,1.3,3.32,1.95,7.04,1.95,11.05s-.65,7.77-1.94,11.1c-1.33,3.43-3.24,6.4-5.67,8.84-2.44,2.44-5.38,4.33-8.74,5.63-3.27,1.26-6.89,1.9-10.76,1.9ZM243.21,45.57c-1.23,0-1.42.28-1.48.38-.23.34-1,1.78-1,5.78s.77,5.47,1.01,5.82c.06.09.25.38,1.47.38,1.07,0,1.23-.24,1.31-.35.24-.35,1.01-1.82,1.01-5.85s-.76-5.46-1-5.81c-.07-.1-.23-.35-1.32-.35Z"/>
      </g>
      <g>
        <path d="M59.66,77.49c-2.63,0-4.87-1.7-5.68-4.06-.81,2.36-3.04,4.06-5.68,4.06h-12.4c-2.73,0-5.03-1.82-5.76-4.31-.73,2.49-3.03,4.31-5.76,4.31h-12.4c-3.31,0-6-2.69-6-6V30.01c0-3.31,2.69-6,6-6h7.68c1.97,0,3.74.51,5.26,1.52.02.01.04.03.06.04.08-.04.17-.09.25-.13,1.27-.64,2.62-1.15,4.05-1.51,1.48-.38,3.08-.57,4.78-.57,3.87,0,7.22,1.09,9.94,3.23.21.17.42.34.62.51.83-.57,1.69-1.07,2.58-1.5,1.59-.77,3.3-1.35,5.08-1.71,1.7-.35,3.4-.52,5.08-.52,3.1,0,5.95.49,8.47,1.46,2.7,1.04,5.01,2.59,6.88,4.61,1.82,1.98,3.21,4.39,4.11,7.16.83,2.55,1.26,5.42,1.26,8.52v26.36c0,3.31-2.69,6-6,6h-12.4Z"/>
        <path d="M83.34,78.13c-2.51,0-4.87-.35-6.99-1.03-2.34-.75-4.4-1.9-6.1-3.42-1.76-1.57-3.13-3.52-4.06-5.79-.88-2.15-1.33-4.58-1.33-7.23,0-2.37.58-4.77,1.71-7.13,1.2-2.49,3.18-4.7,5.88-6.57.3-.21.6-.41.92-.6-.11-.07-.22-.14-.33-.22-1.35-.93-2.44-2.11-3.24-3.53l-2.21-3.83c-1.43-2.47-.91-5.61,1.23-7.5,3.07-2.71,6.54-4.77,10.31-6.1,3.68-1.3,7.66-1.96,11.82-1.96,3.26,0,6.3.56,9.03,1.66,2.79,1.13,5.21,2.75,7.2,4.8,1.97,2.04,3.49,4.48,4.52,7.24,1,2.67,1.5,5.58,1.5,8.66v25.92c0,3.31-2.69,6-6,6h-5.68c-2.2,0-3.99-.39-5.49-1.19-.49-.26-.95-.57-1.38-.93-.55.3-1.11.58-1.67.84-1.44.66-3,1.15-4.61,1.47-1.53.3-3.22.45-5.01.45Z"/>
        <path d="M122.54,78.13c-2.7,0-5.18-.42-7.36-1.25-2.31-.88-4.32-2.18-5.96-3.86-1.63-1.67-2.87-3.69-3.7-5.99-.76-2.13-1.15-4.49-1.15-7.02v-15.8c-1.18-.36-2.27-.97-3.21-1.83-1.69-1.54-2.63-3.76-2.63-6.25v-4.84c0-2.87,2.04-5.34,4.86-5.89l2.81-.54,1.54-6.37c1.01-4.04,4.28-6.51,8.55-6.51h6.48c3.31,0,6,2.69,6,6v6.12h4.08c3.31,0,6,2.69,6,6v8.48c0,3.31-2.69,6-6,6h-4.08v11c1.7,0,3.27.52,4.55,1.5.79.6,1.47,1.37,2.09,2.33l3.77,5.9c1.69,2.64,1.06,6.15-1.45,8.03-2.15,1.62-4.6,2.84-7.27,3.65-2.55.76-5.22,1.15-7.93,1.15Z"/>
        <path d="M131.98,77.49c-3.31,0-6-2.69-6-6V30.01c0-3.31,2.69-6,6-6h7.36c1.12,0,2.11.11,3.02.35,1.27.33,2.38.88,3.33,1.65.01.01.03.02.04.03,2.8-1.88,5.89-2.83,9.21-2.83s6.05.89,8.28,2.65c1.73,1.37,2.57,3.57,2.19,5.74l-1.6,9.12c-.52,2.74-1.96,4.24-3.08,5.04-1.34.95-2.98,1.45-4.75,1.45-.86,0-1.76-.1-2.76-.29-.04,0-.38-.07-1.16-.07-.37,0-.94,0-1.68.93v23.71c0,3.31-2.69,6-6,6h-12.4Z"/>
        <path d="M175.34,78.13c-3.61,0-7.07-.6-10.27-1.8-3.33-1.23-6.28-3.1-8.79-5.56-2.5-2.45-4.48-5.48-5.89-9.02-1.38-3.47-2.09-7.48-2.09-11.9,0-3.49.61-6.87,1.81-10.02,1.23-3.21,3.02-6.08,5.33-8.51,2.33-2.45,5.15-4.4,8.4-5.81,3.27-1.42,6.94-2.14,10.93-2.14,3.45,0,6.7.56,9.64,1.66,3.07,1.15,5.76,2.86,8,5.08,2.23,2.22,3.99,4.93,5.21,8.06,1.19,3.05,1.79,6.48,1.79,10.2,0,1.22-.06,2.23-.18,3.09-.19,1.42-.62,2.67-1.27,3.73-.71,1.15-1.67,2.08-2.82,2.71l2.69,3.32c1.84,2.27,1.78,5.52-.14,7.72-1.66,1.91-3.51,3.5-5.49,4.73-1.88,1.17-3.84,2.09-5.83,2.76-1.92.64-3.87,1.09-5.81,1.34-1.81.23-3.57.35-5.23.35Z"/>
        <rect x="186.94" y="5.61" width="24.4" height="71.88" rx="6" ry="6"/>
        <rect x="203.34" y="5.61" width="24.4" height="71.88" rx="6" ry="6"/>
        <path d="M242.21,78.13c-3.9,0-7.54-.64-10.81-1.9-3.36-1.29-6.31-3.18-8.78-5.61-2.48-2.45-4.41-5.43-5.74-8.87-1.29-3.33-1.94-7.07-1.94-11.1s.66-7.73,1.95-11.05c1.33-3.41,3.27-6.37,5.75-8.8,2.47-2.42,5.43-4.29,8.79-5.56,3.27-1.24,6.9-1.87,10.79-1.87s7.47.63,10.74,1.87c3.36,1.28,6.31,3.16,8.75,5.59,2.44,2.42,4.35,5.37,5.68,8.77,1.3,3.32,1.95,7.04,1.95,11.05s-.65,7.77-1.94,11.1c-1.33,3.43-3.24,6.4-5.67,8.84-2.44,2.44-5.38,4.33-8.74,5.63-3.27,1.26-6.89,1.9-10.76,1.9ZM242.21,44.57c-1.23,0-1.42.28-1.48.38-.23.34-1,1.78-1,5.78s.77,5.47,1.01,5.82c.06.09.25.38,1.47.38,1.07,0,1.23-.24,1.31-.35.24-.35,1.01-1.82,1.01-5.85s-.76-5.46-1-5.81c-.07-.1-.23-.35-1.32-.35Z"/>
      </g>
      <g>
        <path d="M58.66,76.49c-2.63,0-4.87-1.7-5.68-4.06-.81,2.36-3.04,4.06-5.68,4.06h-12.4c-2.73,0-5.03-1.82-5.76-4.31-.73,2.49-3.03,4.31-5.76,4.31h-12.4c-3.31,0-6-2.69-6-6V29.01c0-3.31,2.69-6,6-6h7.68c1.97,0,3.74.51,5.26,1.52.02.01.04.03.06.04.08-.04.17-.09.25-.13,1.27-.64,2.62-1.15,4.05-1.51,1.48-.38,3.08-.57,4.78-.57,3.87,0,7.22,1.09,9.94,3.23.21.17.42.34.62.51.83-.57,1.69-1.07,2.58-1.5,1.59-.77,3.3-1.35,5.08-1.71,1.7-.35,3.4-.52,5.08-.52,3.1,0,5.95.49,8.47,1.46,2.7,1.04,5.01,2.59,6.88,4.61,1.82,1.98,3.21,4.39,4.11,7.16.83,2.55,1.26,5.42,1.26,8.52v26.36c0,3.31-2.69,6-6,6h-12.4Z"/>
        <path d="M82.34,77.13c-2.51,0-4.87-.35-6.99-1.03-2.34-.75-4.4-1.9-6.1-3.42-1.76-1.57-3.13-3.52-4.06-5.79-.88-2.15-1.33-4.58-1.33-7.23,0-2.37.58-4.77,1.71-7.13,1.2-2.49,3.18-4.7,5.88-6.57.3-.21.6-.41.92-.6-.11-.07-.22-.14-.33-.22-1.35-.93-2.44-2.11-3.24-3.53l-2.21-3.83c-1.43-2.47-.91-5.61,1.23-7.5,3.07-2.71,6.54-4.77,10.31-6.1,3.68-1.3,7.66-1.96,11.82-1.96,3.26,0,6.3.56,9.03,1.66,2.79,1.13,5.21,2.75,7.2,4.8,1.97,2.04,3.49,4.48,4.52,7.24,1,2.67,1.5,5.58,1.5,8.66v25.92c0,3.31-2.69,6-6,6h-5.68c-2.2,0-3.99-.39-5.49-1.19-.49-.26-.95-.57-1.38-.93-.55.3-1.11.58-1.67.84-1.44.66-3,1.15-4.61,1.47-1.53.3-3.22.45-5.01.45Z"/>
        <path d="M121.54,77.13c-2.7,0-5.18-.42-7.36-1.25-2.31-.88-4.32-2.18-5.96-3.86-1.63-1.67-2.87-3.69-3.7-5.99-.76-2.13-1.15-4.49-1.15-7.02v-15.8c-1.18-.36-2.27-.97-3.21-1.83-1.69-1.54-2.63-3.76-2.63-6.25v-4.84c0-2.87,2.04-5.34,4.86-5.89l2.81-.54,1.54-6.37c1.01-4.04,4.28-6.51,8.55-6.51h6.48c3.31,0,6,2.69,6,6v6.12h4.08c3.31,0,6,2.69,6,6v8.48c0,3.31-2.69,6-6,6h-4.08v11c1.7,0,3.27.52,4.55,1.5.79.6,1.47,1.37,2.09,2.33l3.77,5.9c1.69,2.64,1.06,6.15-1.45,8.03-2.15,1.62-4.6,2.84-7.27,3.65-2.55.76-5.22,1.15-7.93,1.15Z"/>
        <path d="M130.98,76.49c-3.31,0-6-2.69-6-6V29.01c0-3.31,2.69-6,6-6h7.36c1.12,0,2.11.11,3.02.35,1.27.33,2.38.88,3.33,1.65.01.01.03.02.04.03,2.8-1.88,5.89-2.83,9.21-2.83s6.05.89,8.28,2.65c1.73,1.37,2.57,3.57,2.19,5.74l-1.6,9.12c-.52,2.74-1.96,4.24-3.08,5.04-1.34.95-2.98,1.45-4.75,1.45-.86,0-1.76-.1-2.76-.29-.04,0-.38-.07-1.16-.07-.37,0-.94,0-1.68.93v23.71c0,3.31-2.69,6-6,6h-12.4Z"/>
        <path d="M174.34,77.13c-3.61,0-7.07-.6-10.27-1.8-3.33-1.23-6.28-3.1-8.79-5.56-2.5-2.45-4.48-5.48-5.89-9.02-1.38-3.47-2.09-7.48-2.09-11.9,0-3.49.61-6.87,1.81-10.02,1.23-3.21,3.02-6.08,5.33-8.51,2.33-2.45,5.15-4.4,8.4-5.81,3.27-1.42,6.94-2.14,10.93-2.14,3.45,0,6.7.56,9.64,1.66,3.07,1.15,5.76,2.86,8,5.08,2.23,2.22,3.99,4.93,5.21,8.06,1.19,3.05,1.79,6.48,1.79,10.2,0,1.22-.06,2.23-.18,3.09-.19,1.42-.62,2.67-1.27,3.73-.71,1.15-1.67,2.08-2.82,2.71l2.69,3.32c1.84,2.27,1.78,5.52-.14,7.72-1.66,1.91-3.51,3.5-5.49,4.73-1.88,1.17-3.84,2.09-5.83,2.76-1.92.64-3.87,1.09-5.81,1.34-1.81.23-3.57.35-5.23.35Z"/>
        <rect x="185.94" y="4.61" width="24.4" height="71.88" rx="6" ry="6"/>
        <rect x="202.34" y="4.61" width="24.4" height="71.88" rx="6" ry="6"/>
        <path d="M241.21,77.13c-3.9,0-7.54-.64-10.81-1.9-3.36-1.29-6.31-3.18-8.78-5.61-2.48-2.45-4.41-5.43-5.74-8.87-1.29-3.33-1.94-7.07-1.94-11.1s.66-7.73,1.95-11.05c1.33-3.41,3.27-6.37,5.75-8.8,2.47-2.42,5.43-4.29,8.79-5.56,3.27-1.24,6.9-1.87,10.79-1.87s7.47.63,10.74,1.87c3.36,1.28,6.31,3.16,8.75,5.59,2.44,2.42,4.35,5.37,5.68,8.77,1.3,3.32,1.95,7.04,1.95,11.05s-.65,7.77-1.94,11.1c-1.33,3.43-3.24,6.4-5.67,8.84-2.44,2.44-5.38,4.33-8.74,5.63-3.27,1.26-6.89,1.9-10.76,1.9ZM241.21,43.57c-1.23,0-1.42.28-1.48.38-.23.34-1,1.78-1,5.78s.77,5.47,1.01,5.82c.06.09.25.38,1.47.38,1.07,0,1.23-.24,1.31-.35.24-.35,1.01-1.82,1.01-5.85s-.76-5.46-1-5.81c-.07-.1-.23-.35-1.32-.35Z"/>
      </g>
      <g>
        <path d="M57.66,75.49c-2.63,0-4.87-1.7-5.68-4.06-.81,2.36-3.04,4.06-5.68,4.06h-12.4c-2.73,0-5.03-1.82-5.76-4.31-.73,2.49-3.03,4.31-5.76,4.31h-12.4c-3.31,0-6-2.69-6-6V28.01c0-3.31,2.69-6,6-6h7.68c1.97,0,3.74.51,5.26,1.52.02.01.04.03.06.04.08-.04.17-.09.25-.13,1.27-.64,2.62-1.15,4.05-1.51,1.48-.38,3.08-.57,4.78-.57,3.87,0,7.22,1.09,9.94,3.23.21.17.42.34.62.51.83-.57,1.69-1.07,2.58-1.5,1.59-.77,3.3-1.35,5.08-1.71,1.7-.35,3.4-.52,5.08-.52,3.1,0,5.95.49,8.47,1.46,2.7,1.04,5.01,2.59,6.88,4.61,1.82,1.98,3.21,4.39,4.11,7.16.83,2.55,1.26,5.42,1.26,8.52v26.36c0,3.31-2.69,6-6,6h-12.4Z"/>
        <path d="M81.34,76.13c-2.51,0-4.87-.35-6.99-1.03-2.34-.75-4.4-1.9-6.1-3.42-1.76-1.57-3.13-3.52-4.06-5.79-.88-2.15-1.33-4.58-1.33-7.23,0-2.37.58-4.77,1.71-7.13,1.2-2.49,3.18-4.7,5.88-6.57.3-.21.6-.41.92-.6-.11-.07-.22-.14-.33-.22-1.35-.93-2.44-2.11-3.24-3.53l-2.21-3.83c-1.43-2.47-.91-5.61,1.23-7.5,3.07-2.71,6.54-4.77,10.31-6.1,3.68-1.3,7.66-1.96,11.82-1.96,3.26,0,6.3.56,9.03,1.66,2.79,1.13,5.21,2.75,7.2,4.8,1.97,2.04,3.49,4.48,4.52,7.24,1,2.67,1.5,5.58,1.5,8.66v25.92c0,3.31-2.69,6-6,6h-5.68c-2.2,0-3.99-.39-5.49-1.19-.49-.26-.95-.57-1.38-.93-.55.3-1.11.58-1.67.84-1.44.66-3,1.15-4.61,1.47-1.53.3-3.22.45-5.01.45Z"/>
        <path d="M120.54,76.13c-2.7,0-5.18-.42-7.36-1.25-2.31-.88-4.32-2.18-5.96-3.86-1.63-1.67-2.87-3.69-3.7-5.99-.76-2.13-1.15-4.49-1.15-7.02v-15.8c-1.18-.36-2.27-.97-3.21-1.83-1.69-1.54-2.63-3.76-2.63-6.25v-4.84c0-2.87,2.04-5.34,4.86-5.89l2.81-.54,1.54-6.37c1.01-4.04,4.28-6.51,8.55-6.51h6.48c3.31,0,6,2.69,6,6v6.12h4.08c3.31,0,6,2.69,6,6v8.48c0,3.31-2.69,6-6,6h-4.08v11c1.7,0,3.27.52,4.55,1.5.79.6,1.47,1.37,2.09,2.33l3.77,5.9c1.69,2.64,1.06,6.15-1.45,8.03-2.15,1.62-4.6,2.84-7.27,3.65-2.55.76-5.22,1.15-7.93,1.15Z"/>
        <path d="M129.98,75.49c-3.31,0-6-2.69-6-6V28.01c0-3.31,2.69-6,6-6h7.36c1.12,0,2.11.11,3.02.35,1.27.33,2.38.88,3.33,1.65.01.01.03.02.04.03,2.8-1.88,5.89-2.83,9.21-2.83s6.05.89,8.28,2.65c1.73,1.37,2.57,3.57,2.19,5.74l-1.6,9.12c-.52,2.74-1.96,4.24-3.08,5.04-1.34.95-2.98,1.45-4.75,1.45-.86,0-1.76-.1-2.76-.29-.04,0-.38-.07-1.16-.07-.37,0-.94,0-1.68.93v23.71c0,3.31-2.69,6-6,6h-12.4Z"/>
        <path d="M173.34,76.13c-3.61,0-7.07-.6-10.27-1.8-3.33-1.23-6.28-3.1-8.79-5.56-2.5-2.45-4.48-5.48-5.89-9.02-1.38-3.47-2.09-7.48-2.09-11.9,0-3.49.61-6.87,1.81-10.02,1.23-3.21,3.02-6.08,5.33-8.51,2.33-2.45,5.15-4.4,8.4-5.81,3.27-1.42,6.94-2.14,10.93-2.14,3.45,0,6.7.56,9.64,1.66,3.07,1.15,5.76,2.86,8,5.08,2.23,2.22,3.99,4.93,5.21,8.06,1.19,3.05,1.79,6.48,1.79,10.2,0,1.22-.06,2.23-.18,3.09-.19,1.42-.62,2.67-1.27,3.73-.71,1.15-1.67,2.08-2.82,2.71l2.69,3.32c1.84,2.27,1.78,5.52-.14,7.72-1.66,1.91-3.51,3.5-5.49,4.73-1.88,1.17-3.84,2.09-5.83,2.76-1.92.64-3.87,1.09-5.81,1.34-1.81.23-3.57.35-5.23.35Z"/>
        <rect x="184.94" y="3.61" width="24.4" height="71.88" rx="6" ry="6"/>
        <rect x="201.34" y="3.61" width="24.4" height="71.88" rx="6" ry="6"/>
        <path d="M240.21,76.13c-3.9,0-7.54-.64-10.81-1.9-3.36-1.29-6.31-3.18-8.78-5.61-2.48-2.45-4.41-5.43-5.74-8.87-1.29-3.33-1.94-7.07-1.94-11.1s.66-7.73,1.95-11.05c1.33-3.41,3.27-6.37,5.75-8.8,2.47-2.42,5.43-4.29,8.79-5.56,3.27-1.24,6.9-1.87,10.79-1.87s7.47.63,10.74,1.87c3.36,1.28,6.31,3.16,8.75,5.59,2.44,2.42,4.35,5.37,5.68,8.77,1.3,3.32,1.95,7.04,1.95,11.05s-.65,7.77-1.94,11.1c-1.33,3.43-3.24,6.4-5.67,8.84-2.44,2.44-5.38,4.33-8.74,5.63-3.27,1.26-6.89,1.9-10.76,1.9ZM240.21,42.57c-1.23,0-1.42.28-1.48.38-.23.34-1,1.78-1,5.78s.77,5.47,1.01,5.82c.06.09.25.38,1.47.38,1.07,0,1.23-.24,1.31-.35.24-.35,1.01-1.82,1.01-5.85s-.76-5.46-1-5.81c-.07-.1-.23-.35-1.32-.35Z"/>
      </g>
      <g>
        <path d="M56.66,74.49c-2.63,0-4.87-1.7-5.68-4.06-.81,2.36-3.04,4.06-5.68,4.06h-12.4c-2.73,0-5.03-1.82-5.76-4.31-.73,2.49-3.03,4.31-5.76,4.31h-12.4c-3.31,0-6-2.69-6-6V27.01c0-3.31,2.69-6,6-6h7.68c1.97,0,3.74.51,5.26,1.52.02.01.04.03.06.04.08-.04.17-.09.25-.13,1.27-.64,2.62-1.15,4.05-1.51,1.48-.38,3.08-.57,4.78-.57,3.87,0,7.22,1.09,9.94,3.23.21.17.42.34.62.51.83-.57,1.69-1.07,2.58-1.5,1.59-.77,3.3-1.35,5.08-1.71,1.7-.35,3.4-.52,5.08-.52,3.1,0,5.95.49,8.47,1.46,2.7,1.04,5.01,2.59,6.88,4.61,1.82,1.98,3.21,4.39,4.11,7.16.83,2.55,1.26,5.42,1.26,8.52v26.36c0,3.31-2.69,6-6,6h-12.4Z"/>
        <path d="M80.34,75.13c-2.51,0-4.87-.35-6.99-1.03-2.34-.75-4.4-1.9-6.1-3.42-1.76-1.57-3.13-3.52-4.06-5.79-.88-2.15-1.33-4.58-1.33-7.23,0-2.37.58-4.77,1.71-7.13,1.2-2.49,3.18-4.7,5.88-6.57.3-.21.6-.41.92-.6-.11-.07-.22-.14-.33-.22-1.35-.93-2.44-2.11-3.24-3.53l-2.21-3.83c-1.43-2.47-.91-5.61,1.23-7.5,3.07-2.71,6.54-4.77,10.31-6.1,3.68-1.3,7.66-1.96,11.82-1.96,3.26,0,6.3.56,9.03,1.66,2.79,1.13,5.21,2.75,7.2,4.8,1.97,2.04,3.49,4.48,4.52,7.24,1,2.67,1.5,5.58,1.5,8.66v25.92c0,3.31-2.69,6-6,6h-5.68c-2.2,0-3.99-.39-5.49-1.19-.49-.26-.95-.57-1.38-.93-.55.3-1.11.58-1.67.84-1.44.66-3,1.15-4.61,1.47-1.53.3-3.22.45-5.01.45Z"/>
        <path d="M119.54,75.13c-2.7,0-5.18-.42-7.36-1.25-2.31-.88-4.32-2.18-5.96-3.86-1.63-1.67-2.87-3.69-3.7-5.99-.76-2.13-1.15-4.49-1.15-7.02v-15.8c-1.18-.36-2.27-.97-3.21-1.83-1.69-1.54-2.63-3.76-2.63-6.25v-4.84c0-2.87,2.04-5.34,4.86-5.89l2.81-.54,1.54-6.37c1.01-4.04,4.28-6.51,8.55-6.51h6.48c3.31,0,6,2.69,6,6v6.12h4.08c3.31,0,6,2.69,6,6v8.48c0,3.31-2.69,6-6,6h-4.08v11c1.7,0,3.27.52,4.55,1.5.79.6,1.47,1.37,2.09,2.33l3.77,5.9c1.69,2.64,1.06,6.15-1.45,8.03-2.15,1.62-4.6,2.84-7.27,3.65-2.55.76-5.22,1.15-7.93,1.15Z"/>
        <path d="M128.98,74.49c-3.31,0-6-2.69-6-6V27.01c0-3.31,2.69-6,6-6h7.36c1.12,0,2.11.11,3.02.35,1.27.33,2.38.88,3.33,1.65.01.01.03.02.04.03,2.8-1.88,5.89-2.83,9.21-2.83s6.05.89,8.28,2.65c1.73,1.37,2.57,3.57,2.19,5.74l-1.6,9.12c-.52,2.74-1.96,4.24-3.08,5.04-1.34.95-2.98,1.45-4.75,1.45-.86,0-1.76-.1-2.76-.29-.04,0-.38-.07-1.16-.07-.37,0-.94,0-1.68.93v23.71c0,3.31-2.69,6-6,6h-12.4Z"/>
        <path d="M172.34,75.13c-3.61,0-7.07-.6-10.27-1.8-3.33-1.23-6.28-3.1-8.79-5.56-2.5-2.45-4.48-5.48-5.89-9.02-1.38-3.47-2.09-7.48-2.09-11.9,0-3.49.61-6.87,1.81-10.02,1.23-3.21,3.02-6.08,5.33-8.51,2.33-2.45,5.15-4.4,8.4-5.81,3.27-1.42,6.94-2.14,10.93-2.14,3.45,0,6.7.56,9.64,1.66,3.07,1.15,5.76,2.86,8,5.08,2.23,2.22,3.99,4.93,5.21,8.06,1.19,3.05,1.79,6.48,1.79,10.2,0,1.22-.06,2.23-.18,3.09-.19,1.42-.62,2.67-1.27,3.73-.71,1.15-1.67,2.08-2.82,2.71l2.69,3.32c1.84,2.27,1.78,5.52-.14,7.72-1.66,1.91-3.51,3.5-5.49,4.73-1.88,1.17-3.84,2.09-5.83,2.76-1.92.64-3.87,1.09-5.81,1.34-1.81.23-3.57.35-5.23.35Z"/>
        <rect x="183.94" y="2.61" width="24.4" height="71.88" rx="6" ry="6"/>
        <rect x="200.34" y="2.61" width="24.4" height="71.88" rx="6" ry="6"/>
        <path d="M239.21,75.13c-3.9,0-7.54-.64-10.81-1.9-3.36-1.29-6.31-3.18-8.78-5.61-2.48-2.45-4.41-5.43-5.74-8.87-1.29-3.33-1.94-7.07-1.94-11.1s.66-7.73,1.95-11.05c1.33-3.41,3.27-6.37,5.75-8.8,2.47-2.42,5.43-4.29,8.79-5.56,3.27-1.24,6.9-1.87,10.79-1.87s7.47.63,10.74,1.87c3.36,1.28,6.31,3.16,8.75,5.59,2.44,2.42,4.35,5.37,5.68,8.77,1.3,3.32,1.95,7.04,1.95,11.05s-.65,7.77-1.94,11.1c-1.33,3.43-3.24,6.4-5.67,8.84-2.44,2.44-5.38,4.33-8.74,5.63-3.27,1.26-6.89,1.9-10.76,1.9ZM239.21,41.57c-1.23,0-1.42.28-1.48.38-.23.34-1,1.78-1,5.78s.77,5.47,1.01,5.82c.06.09.25.38,1.47.38,1.07,0,1.23-.24,1.31-.35.24-.35,1.01-1.82,1.01-5.85s-.76-5.46-1-5.81c-.07-.1-.23-.35-1.32-.35Z"/>
      </g>
      <g>
        <path d="M55.66,73.49c-2.63,0-4.87-1.7-5.68-4.06-.81,2.36-3.04,4.06-5.68,4.06h-12.4c-2.73,0-5.03-1.82-5.76-4.31-.73,2.49-3.03,4.31-5.76,4.31H7.98c-3.31,0-6-2.69-6-6V26.01c0-3.31,2.69-6,6-6h7.68c1.97,0,3.74.51,5.26,1.52.02.01.04.03.06.04.08-.04.17-.09.25-.13,1.27-.64,2.62-1.15,4.05-1.51,1.48-.38,3.08-.57,4.78-.57,3.87,0,7.22,1.09,9.94,3.23.21.17.42.34.62.51.83-.57,1.69-1.07,2.58-1.5,1.59-.77,3.3-1.35,5.08-1.71,1.7-.35,3.4-.52,5.08-.52,3.1,0,5.95.49,8.47,1.46,2.7,1.04,5.01,2.59,6.88,4.61,1.82,1.98,3.21,4.39,4.11,7.16.83,2.55,1.26,5.42,1.26,8.52v26.36c0,3.31-2.69,6-6,6h-12.4Z"/>
        <path d="M79.34,74.13c-2.51,0-4.87-.35-6.99-1.03-2.34-.75-4.4-1.9-6.1-3.42-1.76-1.57-3.13-3.52-4.06-5.79-.88-2.15-1.33-4.58-1.33-7.23,0-2.37.58-4.77,1.71-7.13,1.2-2.49,3.18-4.7,5.88-6.57.3-.21.6-.41.92-.6-.11-.07-.22-.14-.33-.22-1.35-.93-2.44-2.11-3.24-3.53l-2.21-3.83c-1.43-2.47-.91-5.61,1.23-7.5,3.07-2.71,6.54-4.77,10.31-6.1,3.68-1.3,7.66-1.96,11.82-1.96,3.26,0,6.3.56,9.03,1.66,2.79,1.13,5.21,2.75,7.2,4.8,1.97,2.04,3.49,4.48,4.52,7.24,1,2.67,1.5,5.58,1.5,8.66v25.92c0,3.31-2.69,6-6,6h-5.68c-2.2,0-3.99-.39-5.49-1.19-.49-.26-.95-.57-1.38-.93-.55.3-1.11.58-1.67.84-1.44.66-3,1.15-4.61,1.47-1.53.3-3.22.45-5.01.45Z"/>
        <path d="M118.54,74.13c-2.7,0-5.18-.42-7.36-1.25-2.31-.88-4.32-2.18-5.96-3.86-1.63-1.67-2.87-3.69-3.7-5.99-.76-2.13-1.15-4.49-1.15-7.02v-15.8c-1.18-.36-2.27-.97-3.21-1.83-1.69-1.54-2.63-3.76-2.63-6.25v-4.84c0-2.87,2.04-5.34,4.86-5.89l2.81-.54,1.54-6.37c1.01-4.04,4.28-6.51,8.55-6.51h6.48c3.31,0,6,2.69,6,6v6.12h4.08c3.31,0,6,2.69,6,6v8.48c0,3.31-2.69,6-6,6h-4.08v11c1.7,0,3.27.52,4.55,1.5.79.6,1.47,1.37,2.09,2.33l3.77,5.9c1.69,2.64,1.06,6.15-1.45,8.03-2.15,1.62-4.6,2.84-7.27,3.65-2.55.76-5.22,1.15-7.93,1.15Z"/>
        <path d="M127.98,73.49c-3.31,0-6-2.69-6-6V26.01c0-3.31,2.69-6,6-6h7.36c1.12,0,2.11.11,3.02.35,1.27.33,2.38.88,3.33,1.65.01.01.03.02.04.03,2.8-1.88,5.89-2.83,9.21-2.83s6.05.89,8.28,2.65c1.73,1.37,2.57,3.57,2.19,5.74l-1.6,9.12c-.52,2.74-1.96,4.24-3.08,5.04-1.34.95-2.98,1.45-4.75,1.45-.86,0-1.76-.1-2.76-.29-.04,0-.38-.07-1.16-.07-.37,0-.94,0-1.68.93v23.71c0,3.31-2.69,6-6,6h-12.4Z"/>
        <path d="M171.34,74.13c-3.61,0-7.07-.6-10.27-1.8-3.33-1.23-6.28-3.1-8.79-5.56-2.5-2.45-4.48-5.48-5.89-9.02-1.38-3.47-2.09-7.48-2.09-11.9,0-3.49.61-6.87,1.81-10.02,1.23-3.21,3.02-6.08,5.33-8.51,2.33-2.45,5.15-4.4,8.4-5.81,3.27-1.42,6.94-2.14,10.93-2.14,3.45,0,6.7.56,9.64,1.66,3.07,1.15,5.76,2.86,8,5.08,2.23,2.22,3.99,4.93,5.21,8.06,1.19,3.05,1.79,6.48,1.79,10.2,0,1.22-.06,2.23-.18,3.09-.19,1.42-.62,2.67-1.27,3.73-.71,1.15-1.67,2.08-2.82,2.71l2.69,3.32c1.84,2.27,1.78,5.52-.14,7.72-1.66,1.91-3.51,3.5-5.49,4.73-1.88,1.17-3.84,2.09-5.83,2.76-1.92.64-3.87,1.09-5.81,1.34-1.81.23-3.57.35-5.23.35Z"/>
        <rect x="182.94" y="1.61" width="24.4" height="71.88" rx="6" ry="6"/>
        <rect x="199.34" y="1.61" width="24.4" height="71.88" rx="6" ry="6"/>
        <path d="M238.21,74.13c-3.9,0-7.54-.64-10.81-1.9-3.36-1.29-6.31-3.18-8.78-5.61-2.48-2.45-4.41-5.43-5.74-8.87-1.29-3.33-1.94-7.07-1.94-11.1s.66-7.73,1.95-11.05c1.33-3.41,3.27-6.37,5.75-8.8,2.47-2.42,5.43-4.29,8.79-5.56,3.27-1.24,6.9-1.87,10.79-1.87s7.47.63,10.74,1.87c3.36,1.28,6.31,3.16,8.75,5.59,2.44,2.42,4.35,5.37,5.68,8.77,1.3,3.32,1.95,7.04,1.95,11.05s-.65,7.77-1.94,11.1c-1.33,3.43-3.24,6.4-5.67,8.84-2.44,2.44-5.38,4.33-8.74,5.63-3.27,1.26-6.89,1.9-10.76,1.9ZM238.21,40.57c-1.23,0-1.42.28-1.48.38-.23.34-1,1.78-1,5.78s.77,5.47,1.01,5.82c.06.09.25.38,1.47.38,1.07,0,1.23-.24,1.31-.35.24-.35,1.01-1.82,1.01-5.85s-.76-5.46-1-5.81c-.07-.1-.23-.35-1.32-.35Z"/>
      </g>
      <g>
        <path d="M54.66,72.49c-2.63,0-4.87-1.7-5.68-4.06-.81,2.36-3.04,4.06-5.68,4.06h-12.4c-2.73,0-5.03-1.82-5.76-4.31-.73,2.49-3.03,4.31-5.76,4.31H6.98c-3.31,0-6-2.69-6-6V25.01c0-3.31,2.69-6,6-6h7.68c1.97,0,3.74.51,5.26,1.52.02.01.04.03.06.04.08-.04.17-.09.25-.13,1.27-.64,2.62-1.15,4.05-1.51,1.48-.38,3.08-.57,4.78-.57,3.87,0,7.22,1.09,9.94,3.23.21.17.42.34.62.51.83-.57,1.69-1.07,2.58-1.5,1.59-.77,3.3-1.35,5.08-1.71,1.7-.35,3.4-.52,5.08-.52,3.1,0,5.95.49,8.47,1.46,2.7,1.04,5.01,2.59,6.88,4.61,1.82,1.98,3.21,4.39,4.11,7.16.83,2.55,1.26,5.42,1.26,8.52v26.36c0,3.31-2.69,6-6,6h-12.4Z"/>
        <path d="M78.34,73.13c-2.51,0-4.87-.35-6.99-1.03-2.34-.75-4.4-1.9-6.1-3.42-1.76-1.57-3.13-3.52-4.06-5.79-.88-2.15-1.33-4.58-1.33-7.23,0-2.37.58-4.77,1.71-7.13,1.2-2.49,3.18-4.7,5.88-6.57.3-.21.6-.41.92-.6-.11-.07-.22-.14-.33-.22-1.35-.93-2.44-2.11-3.24-3.53l-2.21-3.83c-1.43-2.47-.91-5.61,1.23-7.5,3.07-2.71,6.54-4.77,10.31-6.1,3.68-1.3,7.66-1.96,11.82-1.96,3.26,0,6.3.56,9.03,1.66,2.79,1.13,5.21,2.75,7.2,4.8,1.97,2.04,3.49,4.48,4.52,7.24,1,2.67,1.5,5.58,1.5,8.66v25.92c0,3.31-2.69,6-6,6h-5.68c-2.2,0-3.99-.39-5.49-1.19-.49-.26-.95-.57-1.38-.93-.55.3-1.11.58-1.67.84-1.44.66-3,1.15-4.61,1.47-1.53.3-3.22.45-5.01.45Z"/>
        <path d="M117.54,73.13c-2.7,0-5.18-.42-7.36-1.25-2.31-.88-4.32-2.18-5.96-3.86-1.63-1.67-2.87-3.69-3.7-5.99-.76-2.13-1.15-4.49-1.15-7.02v-15.8c-1.18-.36-2.27-.97-3.21-1.83-1.69-1.54-2.63-3.76-2.63-6.25v-4.84c0-2.87,2.04-5.34,4.86-5.89l2.81-.54,1.54-6.37c1.01-4.04,4.28-6.51,8.55-6.51h6.48c3.31,0,6,2.69,6,6v6.12h4.08c3.31,0,6,2.69,6,6v8.48c0,3.31-2.69,6-6,6h-4.08v11c1.7,0,3.27.52,4.55,1.5.79.6,1.47,1.37,2.09,2.33l3.77,5.9c1.69,2.64,1.06,6.15-1.45,8.03-2.15,1.62-4.6,2.84-7.27,3.65-2.55.76-5.22,1.15-7.93,1.15Z"/>
        <path d="M126.98,72.49c-3.31,0-6-2.69-6-6V25.01c0-3.31,2.69-6,6-6h7.36c1.12,0,2.11.11,3.02.35,1.27.33,2.38.88,3.33,1.65.01.01.03.02.04.03,2.8-1.88,5.89-2.83,9.21-2.83s6.05.89,8.28,2.65c1.73,1.37,2.57,3.57,2.19,5.74l-1.6,9.12c-.52,2.74-1.96,4.24-3.08,5.04-1.34.95-2.98,1.45-4.75,1.45-.86,0-1.76-.1-2.76-.29-.04,0-.38-.07-1.16-.07-.37,0-.94,0-1.68.93v23.71c0,3.31-2.69,6-6,6h-12.4Z"/>
        <path d="M170.34,73.13c-3.61,0-7.07-.6-10.27-1.8-3.33-1.23-6.28-3.1-8.79-5.56-2.5-2.45-4.48-5.48-5.89-9.02-1.38-3.47-2.09-7.48-2.09-11.9,0-3.49.61-6.87,1.81-10.02,1.23-3.21,3.02-6.08,5.33-8.51,2.33-2.45,5.15-4.4,8.4-5.81,3.27-1.42,6.94-2.14,10.93-2.14,3.45,0,6.7.56,9.64,1.66,3.07,1.15,5.76,2.86,8,5.08,2.23,2.22,3.99,4.93,5.21,8.06,1.19,3.05,1.79,6.48,1.79,10.2,0,1.22-.06,2.23-.18,3.09-.19,1.42-.62,2.67-1.27,3.73-.71,1.15-1.67,2.08-2.82,2.71l2.69,3.32c1.84,2.27,1.78,5.52-.14,7.72-1.66,1.91-3.51,3.5-5.49,4.73-1.88,1.17-3.84,2.09-5.83,2.76-1.92.64-3.87,1.09-5.81,1.34-1.81.23-3.57.35-5.23.35Z"/>
        <rect x="181.94" y=".61" width="24.4" height="71.88" rx="6" ry="6"/>
        <rect x="198.34" y=".61" width="24.4" height="71.88" rx="6" ry="6"/>
        <path d="M237.21,73.13c-3.9,0-7.54-.64-10.81-1.9-3.36-1.29-6.31-3.18-8.78-5.61-2.48-2.45-4.41-5.43-5.74-8.87-1.29-3.33-1.94-7.07-1.94-11.1s.66-7.73,1.95-11.05c1.33-3.41,3.27-6.37,5.75-8.8,2.47-2.42,5.43-4.29,8.79-5.56,3.27-1.24,6.9-1.87,10.79-1.87s7.47.63,10.74,1.87c3.36,1.28,6.31,3.16,8.75,5.59,2.44,2.42,4.35,5.37,5.68,8.77,1.3,3.32,1.95,7.04,1.95,11.05s-.65,7.77-1.94,11.1c-1.33,3.43-3.24,6.4-5.67,8.84-2.44,2.44-5.38,4.33-8.74,5.63-3.27,1.26-6.89,1.9-10.76,1.9ZM237.21,39.57c-1.23,0-1.42.28-1.48.38-.23.34-1,1.78-1,5.78s.77,5.47,1.01,5.82c.06.09.25.38,1.47.38,1.07,0,1.23-.24,1.31-.35.24-.35,1.01-1.82,1.01-5.85s-.76-5.46-1-5.81c-.07-.1-.23-.35-1.32-.35Z"/>
      </g>
    </g>
    <g>
      <path class="cls-2" d="M54.66,69.49c-1.66,0-3-1.34-3-3v-26.36c0-3.44-1.28-3.44-2.52-3.44-.88,0-1.52.24-2.06.78-.52.52-.78,1.41-.78,2.66v26.36c0,1.66-1.34,3-3,3h-12.4c-1.66,0-3-1.34-3-3v-26.36c0-2.31-.53-2.89-.55-2.91-.43-.44-1.31-.53-1.97-.53s-1.25.14-1.83.44c-.4.2-.79.45-1.17.74v28.63c0,1.66-1.34,3-3,3H6.98c-1.66,0-3-1.34-3-3V25.01c0-1.66,1.34-3,3-3h7.68c1.37,0,2.58.34,3.6,1.02.52.35.97.78,1.35,1.27.63-.44,1.3-.84,1.99-1.19,1.06-.54,2.21-.97,3.42-1.27,1.24-.31,2.6-.47,4.04-.47,3.18,0,5.9.87,8.08,2.59.82.65,1.56,1.38,2.23,2.2.06-.06.12-.11.18-.16,1.21-1.1,2.54-2,3.95-2.68,1.37-.66,2.84-1.16,4.38-1.48,1.5-.31,3-.46,4.47-.46,2.73,0,5.22.42,7.4,1.26,2.26.87,4.2,2.17,5.75,3.85,1.53,1.66,2.69,3.7,3.47,6.06.74,2.25,1.11,4.81,1.11,7.59v26.36c0,1.66-1.34,3-3,3h-12.4Z"/>
      <path class="cls-2" d="M78.34,70.13c-2.2,0-4.25-.3-6.08-.89-1.94-.62-3.63-1.56-5.02-2.8-1.42-1.27-2.52-2.85-3.28-4.69-.73-1.79-1.1-3.84-1.1-6.09,0-1.92.48-3.88,1.42-5.83.97-2.02,2.61-3.83,4.88-5.4,2.14-1.48,4.87-2.66,8.35-3.62,2.66-.73,5.86-1.17,9.54-1.33-.14-1.44-.52-1.97-.66-2.12-.26-.29-.76-.66-2.05-.66-1.41,0-2.2.17-2.62.32-.77.27-1.46.56-2.04.88-.79.43-1.57.82-2.32,1.17-1.09.5-2.34.76-3.74.76-1.47,0-2.78-.39-3.88-1.15-.97-.67-1.76-1.52-2.33-2.53l-2.23-3.86c-.71-1.24-.46-2.8.61-3.75,2.78-2.46,5.92-4.31,9.33-5.52,3.36-1.19,7-1.79,10.82-1.79,2.88,0,5.54.48,7.9,1.44,2.4.97,4.47,2.35,6.16,4.1,1.68,1.74,2.98,3.83,3.87,6.21.87,2.33,1.31,4.89,1.31,7.61v25.92c0,1.66-1.34,3-3,3h-5.68c-1.69,0-3.02-.27-4.07-.83-.88-.47-1.61-1.2-2.21-2.18-.02.01-.03.02-.05.03-1.1.76-2.26,1.43-3.45,1.97-1.23.56-2.56.98-3.95,1.25-1.34.26-2.84.4-4.44.4ZM80.76,55.72c.18.08.62.21,1.5.21,1.15,0,2.14-.19,2.93-.56.61-.28,1.25-.72,1.91-1.29v-1.29c-.96.07-1.8.18-2.53.33-1.64.33-2.54.69-3.01.93-.58.3-.73.51-.73.51-.09.15-.13.3-.13.5,0,.35.04.55.06.66Z"/>
      <path class="cls-2" d="M117.54,70.13c-2.33,0-4.45-.36-6.29-1.06-1.91-.72-3.55-1.78-4.88-3.15-1.33-1.36-2.34-3.01-3.02-4.91-.65-1.81-.97-3.83-.97-6.01v-18.44h-.52c-1.39,0-2.66-.49-3.66-1.41-.75-.68-1.66-1.95-1.66-4.04v-4.84c0-1.44,1.02-2.67,2.43-2.95l4.71-.91,1.99-8.24c.66-2.65,2.77-4.22,5.64-4.22h6.48c1.66,0,3,1.34,3,3v9.12h7.08c1.66,0,3,1.34,3,3v8.48c0,1.66-1.34,3-3,3h-7.08v17.6c0,.12,0,.22.02.3.15-.05.22-.09.23-.09.29-.15.54-.28.78-.39.62-.28,1.27-.42,1.97-.42,1.3,0,2.2.48,2.73.88.51.39.96.9,1.4,1.58l3.76,5.89c.85,1.32.53,3.07-.73,4.02-1.87,1.4-4,2.47-6.34,3.17-2.27.68-4.65,1.03-7.06,1.03Z"/>
      <path class="cls-2" d="M126.98,69.49c-1.66,0-3-1.34-3-3V25.01c0-1.66,1.34-3,3-3h7.36c.87,0,1.61.08,2.28.25.84.22,1.57.58,2.19,1.07.62.5,1.1,1.14,1.44,1.89.56-.51,1.15-.98,1.74-1.41,2.41-1.73,5.08-2.6,7.95-2.6,2.57,0,4.73.68,6.42,2.01.86.68,1.29,1.79,1.09,2.87l-1.6,9.12c-.33,1.72-1.19,2.63-1.86,3.11-.84.59-1.85.89-3.02.89-.66,0-1.38-.08-2.18-.24-.28-.06-.82-.12-1.74-.12-1.24,0-3.03.33-4.68,3v24.64c0,1.66-1.34,3-3,3h-12.4Z"/>
      <path class="cls-2" d="M170.34,70.13c-3.25,0-6.36-.54-9.23-1.61-2.93-1.09-5.53-2.73-7.73-4.89-2.2-2.15-3.95-4.84-5.21-7.99-1.24-3.12-1.87-6.75-1.87-10.79,0-3.13.54-6.14,1.62-8.95,1.08-2.84,2.67-5.37,4.71-7.52,2.05-2.15,4.54-3.88,7.42-5.12,2.89-1.25,6.16-1.89,9.73-1.89,3.09,0,5.98.5,8.59,1.47,2.67,1,5,2.48,6.94,4.4,1.93,1.92,3.45,4.28,4.52,7.02,1.05,2.7,1.58,5.76,1.58,9.11,0,1.08-.05,1.96-.15,2.69-.14,1.01-.42,1.85-.86,2.57-.57.92-1.39,1.6-2.38,1.96-.69.26-1.49.39-2.42.39h-20.19c.37,1,.86,1.78,1.46,2.33,1.14,1.05,2.64,1.55,4.58,1.55,1.11,0,2.04-.12,2.77-.37.87-.29,1.66-.62,2.33-.97.82-.43,1.58-.82,2.27-1.17,1.11-.56,2.29-.85,3.5-.85,1.92,0,3.55.8,4.62,2.26l3.55,4.37c.92,1.13.89,2.76-.07,3.86-1.47,1.68-3.09,3.08-4.82,4.16-1.68,1.04-3.42,1.87-5.2,2.46-1.73.58-3.5.98-5.24,1.21-1.68.21-3.31.32-4.84.32ZM173.66,37.77c-.1-.19-.22-.36-.35-.53-.29-.37-.69-.68-1.21-.93-.51-.25-1.22-.38-2.09-.38-1.55,0-2.67.37-3.43,1.13-.21.21-.4.44-.57.71h7.65Z"/>
      <rect class="cls-2" x="184.94" y="3.61" width="18.4" height="65.88" rx="3" ry="3"/>
      <rect class="cls-2" x="201.34" y="3.61" width="18.4" height="65.88" rx="3" ry="3"/>
      <path class="cls-2" d="M237.21,70.13c-3.53,0-6.8-.57-9.74-1.7-2.97-1.14-5.58-2.81-7.75-4.94-2.18-2.15-3.88-4.78-5.05-7.81-1.16-2.98-1.74-6.36-1.74-10.02s.59-6.99,1.75-9.95c1.18-3.01,2.88-5.62,5.05-7.75,2.17-2.12,4.78-3.77,7.76-4.9,2.93-1.11,6.2-1.68,9.72-1.68s6.75.56,9.67,1.68c2.97,1.13,5.56,2.79,7.71,4.92,2.14,2.12,3.82,4.73,5,7.73,1.16,2.97,1.75,6.32,1.75,9.96s-.59,7.03-1.74,10.02c-1.17,3.03-2.86,5.66-5,7.8s-4.73,3.81-7.7,4.96c-2.92,1.13-6.18,1.7-9.68,1.7ZM237.21,36.57c-2.52,0-3.47.96-3.96,1.69-.69,1.02-1.52,3.14-1.52,7.47s.83,6.47,1.53,7.5c.49.73,1.44,1.7,3.96,1.7,2.37,0,3.28-.9,3.8-1.69.69-1.03,1.51-3.18,1.51-7.51s-.82-6.46-1.51-7.49c-.52-.78-1.43-1.67-3.81-1.67Z"/>
    </g>
    <g>
      <path class="cls-3" d="M6.98,66.49V25.01h7.68c.77,0,1.42.17,1.94.52s.89.87,1.1,1.56l.68,2.24c.69-.72,1.41-1.38,2.16-1.98.75-.6,1.55-1.12,2.42-1.56.87-.44,1.8-.79,2.8-1.04,1-.25,2.1-.38,3.3-.38,2.51,0,4.58.65,6.22,1.94s2.89,3.02,3.74,5.18c.69-1.28,1.54-2.37,2.54-3.28,1-.91,2.08-1.64,3.24-2.2,1.16-.56,2.39-.97,3.68-1.24s2.58-.4,3.86-.4c2.37,0,4.48.35,6.32,1.06,1.84.71,3.38,1.73,4.62,3.08,1.24,1.35,2.18,3,2.82,4.96.64,1.96.96,4.18.96,6.66v26.36h-12.4v-26.36c0-4.29-1.84-6.44-5.52-6.44-1.68,0-3.07.55-4.18,1.66s-1.66,2.7-1.66,4.78v26.36h-12.4v-26.36c0-2.37-.47-4.04-1.4-5-.93-.96-2.31-1.44-4.12-1.44-1.12,0-2.18.25-3.18.76-1,.51-1.94,1.19-2.82,2.04v30H6.98Z"/>
      <path class="cls-3" d="M96.5,66.49c-1.17,0-2.06-.16-2.66-.48-.6-.32-1.1-.99-1.5-2l-.88-2.28c-1.04.88-2.04,1.65-3,2.32-.96.67-1.95,1.23-2.98,1.7-1.03.47-2.12.81-3.28,1.04-1.16.23-2.45.34-3.86.34-1.89,0-3.61-.25-5.16-.74-1.55-.5-2.86-1.22-3.94-2.19-1.08-.96-1.91-2.16-2.5-3.59-.59-1.43-.88-3.08-.88-4.96,0-1.47.37-2.98,1.12-4.54.75-1.55,2.04-2.96,3.88-4.23,1.84-1.27,4.32-2.33,7.44-3.19,3.12-.86,7.05-1.28,11.8-1.28v-1.78c0-2.45-.5-4.22-1.5-5.31s-2.42-1.63-4.26-1.63c-1.47,0-2.67.16-3.6.48-.93.32-1.77.68-2.5,1.08-.73.4-1.45.76-2.14,1.08-.69.32-1.52.48-2.48.48-.85,0-1.58-.21-2.18-.62s-1.07-.93-1.42-1.54l-2.24-3.88c2.51-2.21,5.29-3.86,8.34-4.94,3.05-1.08,6.33-1.62,9.82-1.62,2.51,0,4.77.41,6.78,1.22,2.01.81,3.72,1.95,5.12,3.4,1.4,1.45,2.47,3.18,3.22,5.18.75,2,1.12,4.19,1.12,6.56v25.92h-5.68ZM82.26,58.93c1.6,0,3-.28,4.2-.84,1.2-.56,2.41-1.47,3.64-2.72v-5.68c-2.48,0-4.52.16-6.12.48s-2.87.73-3.8,1.21c-.93.48-1.58,1.04-1.94,1.66-.36.62-.54,1.29-.54,2.02,0,1.43.39,2.43,1.16,3.01.77.58,1.91.87,3.4.87Z"/>
      <path class="cls-3" d="M117.54,67.13c-1.97,0-3.71-.29-5.22-.86-1.51-.57-2.77-1.39-3.8-2.44-1.03-1.05-1.81-2.33-2.34-3.82-.53-1.49-.8-3.16-.8-5v-21.44h-3.52c-.64,0-1.19-.21-1.64-.62-.45-.41-.68-1.02-.68-1.82v-4.84l6.6-1.28,2.44-10.12c.32-1.28,1.23-1.92,2.72-1.92h6.48v12.12h10.08v8.48h-10.08v20.6c0,.96.23,1.75.7,2.38.47.63,1.14.94,2.02.94.45,0,.83-.05,1.14-.14.31-.09.57-.2.8-.32s.44-.23.64-.32c.2-.09.43-.14.7-.14.37,0,.67.09.9.26.23.17.46.45.7.82l3.76,5.88c-1.6,1.2-3.4,2.1-5.4,2.7-2,.6-4.07.9-6.2.9Z"/>
      <path class="cls-3" d="M126.98,66.49V25.01h7.36c.61,0,1.13.05,1.54.16.41.11.76.27,1.04.5.28.23.49.53.64.9.15.37.27.83.38,1.36l.68,3.88c1.52-2.35,3.23-4.2,5.12-5.56,1.89-1.36,3.96-2.04,6.2-2.04,1.89,0,3.41.45,4.56,1.36l-1.6,9.12c-.11.56-.32.95-.64,1.18-.32.23-.75.34-1.28.34-.45,0-.99-.06-1.6-.18-.61-.12-1.39-.18-2.32-.18-3.25,0-5.81,1.73-7.68,5.2v25.44h-12.4Z"/>
      <path class="cls-3" d="M169.78,24.37c2.75,0,5.26.43,7.54,1.28,2.28.85,4.24,2.09,5.88,3.72,1.64,1.63,2.92,3.62,3.84,5.98.92,2.36,1.38,5.03,1.38,8.02,0,.93-.04,1.69-.12,2.28-.08.59-.23,1.05-.44,1.4-.21.35-.5.59-.86.72-.36.13-.82.2-1.38.2h-23.92c.4,3.47,1.45,5.98,3.16,7.54,1.71,1.56,3.91,2.34,6.6,2.34,1.44,0,2.68-.17,3.72-.52,1.04-.35,1.97-.73,2.78-1.16.81-.43,1.56-.81,2.24-1.16.68-.35,1.39-.52,2.14-.52.99,0,1.73.36,2.24,1.08l3.6,4.44c-1.28,1.47-2.66,2.66-4.14,3.58s-3,1.64-4.56,2.16c-1.56.52-3.12.88-4.68,1.08s-3.05.3-4.46.3c-2.91,0-5.63-.47-8.18-1.42-2.55-.95-4.77-2.35-6.68-4.22-1.91-1.87-3.41-4.19-4.52-6.96-1.11-2.77-1.66-6-1.66-9.68,0-2.77.47-5.4,1.42-7.88.95-2.48,2.31-4.65,4.08-6.52,1.77-1.87,3.92-3.35,6.44-4.44,2.52-1.09,5.37-1.64,8.54-1.64ZM170.02,32.93c-2.37,0-4.23.67-5.56,2.02-1.33,1.35-2.21,3.29-2.64,5.82h15.48c0-.99-.13-1.95-.38-2.88-.25-.93-.67-1.77-1.24-2.5-.57-.73-1.33-1.33-2.26-1.78-.93-.45-2.07-.68-3.4-.68Z"/>
      <path class="cls-3" d="M200.34,6.61v59.88h-12.4V6.61h12.4Z"/>
      <path class="cls-3" d="M216.74,6.61v59.88h-12.4V6.61h12.4Z"/>
      <path class="cls-3" d="M237.21,24.37c3.14,0,6.01.49,8.6,1.48,2.59.99,4.81,2.4,6.66,4.24,1.85,1.84,3.29,4.07,4.32,6.7,1.03,2.63,1.54,5.58,1.54,8.86s-.51,6.29-1.54,8.94c-1.03,2.65-2.47,4.91-4.32,6.76s-4.07,3.28-6.66,4.28c-2.59,1-5.46,1.5-8.6,1.5s-6.06-.5-8.66-1.5c-2.6-1-4.84-2.43-6.72-4.28-1.88-1.85-3.33-4.11-4.36-6.76-1.03-2.65-1.54-5.63-1.54-8.94s.51-6.23,1.54-8.86c1.03-2.63,2.48-4.86,4.36-6.7,1.88-1.84,4.12-3.25,6.72-4.24,2.6-.99,5.49-1.48,8.66-1.48ZM237.21,57.93c2.85,0,4.95-1.01,6.3-3.02,1.35-2.01,2.02-5.07,2.02-9.18s-.67-7.16-2.02-9.16-3.45-3-6.3-3-5.08,1-6.44,3c-1.36,2-2.04,5.05-2.04,9.16s.68,7.17,2.04,9.18c1.36,2.01,3.51,3.02,6.44,3.02Z"/>
    </g>
  </g>
  <path class="cls-1" d="M96.38,66.57c-1.17,0-2.06-.16-2.66-.48-.6-.32-1.1-.99-1.5-2l-.88-2.28c-1.04.88-2.04,1.65-3,2.32-.96.67-1.95,1.23-2.98,1.7-1.03.47-2.12.81-3.28,1.04-1.16.23-2.45.34-3.86.34-1.89,0-3.61-.25-5.16-.74-1.55-.5-2.86-1.22-3.94-2.19-1.08-.96-1.91-2.16-2.5-3.59-.59-1.43-.88-3.08-.88-4.96,0-1.47.37-2.98,1.12-4.54.75-1.55,2.04-2.96,3.88-4.23,1.84-1.27,4.32-2.33,7.44-3.19,3.12-.86,7.05-1.28,11.8-1.28v-1.78c0-2.45-.5-4.22-1.5-5.31s-2.42-1.63-4.26-1.63c-1.47,0-2.67.16-3.6.48-.93.32-1.77.68-2.5,1.08-.73.4-1.45.76-2.14,1.08-.69.32-1.52.48-2.48.48-.85,0-1.58-.21-2.18-.62s-1.07-.93-1.42-1.54l-2.24-3.88c2.51-2.21,5.29-3.86,8.34-4.94,3.05-1.08,6.33-1.62,9.82-1.62,2.51,0,4.77.41,6.78,1.22,2.01.81,3.72,1.95,5.12,3.4,1.4,1.45,2.47,3.18,3.22,5.18.75,2,1.12,4.19,1.12,6.56v25.92h-5.68ZM82.14,59.02c1.6,0,3-.28,4.2-.84,1.2-.56,2.41-1.47,3.64-2.72v-5.68c-2.48,0-4.52.16-6.12.48s-2.87.73-3.8,1.21c-.93.48-1.58,1.04-1.94,1.66-.36.62-.54,1.29-.54,2.02,0,1.43.39,2.43,1.16,3.01.77.58,1.91.87,3.4.87Z"/>
  <path class="cls-1" d="M6.98,66.41V24.93h7.68c.77,0,1.42.17,1.94.52s.89.87,1.1,1.56l.68,2.24c.69-.72,1.41-1.38,2.16-1.98.75-.6,1.55-1.12,2.42-1.56.87-.44,1.8-.79,2.8-1.04,1-.25,2.1-.38,3.3-.38,2.51,0,4.58.65,6.22,1.94s2.89,3.02,3.74,5.18c.69-1.28,1.54-2.37,2.54-3.28,1-.91,2.08-1.64,3.24-2.2,1.16-.56,2.39-.97,3.68-1.24s2.58-.4,3.86-.4c2.37,0,4.48.35,6.32,1.06,1.84.71,3.38,1.73,4.62,3.08,1.24,1.35,2.18,3,2.82,4.96.64,1.96.96,4.18.96,6.66v26.36h-12.4v-26.36c0-4.29-1.84-6.44-5.52-6.44-1.68,0-3.07.55-4.18,1.66s-1.66,2.7-1.66,4.78v26.36h-12.4v-26.36c0-2.37-.47-4.04-1.4-5-.93-.96-2.31-1.44-4.12-1.44-1.12,0-2.18.25-3.18.76-1,.51-1.94,1.19-2.82,2.04v30H6.98Z"/>
</svg>